<svg width="20" height="24" viewBox="0 0 20 24" fill="none" xmlns="http://www.w3.org/2000/svg">
<path d="M17 10H3C2.20435 10 1.44129 10.3161 0.87868 10.8787C0.316071 11.4413 0 12.2044 0 13V21C0 21.7956 0.316071 22.5587 0.87868 23.1213C1.44129 23.6839 2.20435 24 3 24H17C17.7956 24 18.5587 23.6839 19.1213 23.1213C19.6839 22.5587 20 21.7956 20 21V13C20 12.2044 19.6839 11.4413 19.1213 10.8787C18.5587 10.3161 17.7956 10 17 10ZM10 19C9.60444 19 9.21776 18.8827 8.88886 18.6629C8.55996 18.4432 8.30362 18.1308 8.15224 17.7654C8.00087 17.3999 7.96126 16.9978 8.03843 16.6098C8.1156 16.2219 8.30608 15.8655 8.58579 15.5858C8.86549 15.3061 9.22186 15.1156 9.60982 15.0384C9.99778 14.9613 10.3999 15.0009 10.7654 15.1522C11.1308 15.3036 11.4432 15.56 11.6629 15.8889C11.8827 16.2178 12 16.6044 12 17C12 17.5304 11.7893 18.0391 11.4142 18.4142C11.0391 18.7893 10.5304 19 10 19Z" fill="#0CF6FC"/>
<path d="M16 8.00001H14V6.00001C14.0112 4.95112 13.6056 3.94068 12.8723 3.19067C12.1389 2.44065 11.1379 2.01241 10.089 2.00001H10.047C9.52442 1.99087 9.00515 2.08481 8.51889 2.27644C8.03262 2.46808 7.58889 2.75367 7.21305 3.11688C6.83721 3.48009 6.53663 3.9138 6.32849 4.39324C6.12034 4.87267 6.00872 5.38842 6 5.91101V8.00001H4V5.90001C4.01605 4.33173 4.64951 2.83295 5.76309 1.72854C6.87667 0.624133 8.38064 0.00308544 9.949 1.02682e-05H10.01C10.7987 -0.0014514 11.5799 0.153151 12.3086 0.454911C13.0373 0.756671 13.6991 1.19963 14.2559 1.75826C14.8127 2.3169 15.2534 2.98017 15.5528 3.70988C15.8521 4.43959 16.0041 5.22131 16 6.01001V8.00001Z" fill="#0CF6FC"/>
</svg>
