<svg width="24" height="24" viewBox="0 0 24 24" fill="none" xmlns="http://www.w3.org/2000/svg">
<path d="M12 18C10.8133 18 9.65328 17.6481 8.66658 16.9888C7.67989 16.3295 6.91085 15.3925 6.45673 14.2961C6.0026 13.1997 5.88378 11.9933 6.11529 10.8295C6.3468 9.66558 6.91825 8.59648 7.75736 7.75736C8.59648 6.91825 9.66558 6.3468 10.8295 6.11529C11.9933 5.88378 13.1997 6.0026 14.2961 6.45673C15.3925 6.91085 16.3295 7.67989 16.9888 8.66658C17.6481 9.65328 18 10.8133 18 12C17.9984 13.5908 17.3658 15.116 16.2409 16.2409C15.116 17.3658 13.5908 17.9984 12 18Z" fill="#0CF6FC"/>
<path d="M8.49991 2.99998H4.99991V0.499979C4.99988 0.404018 4.97224 0.310092 4.92029 0.229412C4.86833 0.148732 4.79426 0.0847071 4.70691 0.0449793C4.61942 0.00525377 4.52234 -0.00842205 4.42728 0.00558834C4.33222 0.0195987 4.24321 0.0607019 4.17091 0.123979L0.170907 3.62398C0.11737 3.67091 0.0744712 3.72873 0.0450814 3.79357C0.0156917 3.85841 0.000488281 3.92879 0.000488281 3.99998C0.000488281 4.07117 0.0156917 4.14154 0.0450814 4.20639C0.0744712 4.27123 0.11737 4.32905 0.170907 4.37598L4.17091 7.87598C4.26195 7.95578 4.37884 7.99984 4.49991 7.99998C4.63251 7.99998 4.75969 7.9473 4.85346 7.85353C4.94723 7.75976 4.99991 7.63259 4.99991 7.49998V4.99998H8.49991C8.63251 4.99998 8.75969 4.9473 8.85346 4.85353C8.94723 4.75976 8.99991 4.63259 8.99991 4.49998V3.49998C8.99991 3.36737 8.94723 3.24019 8.85346 3.14643C8.75969 3.05266 8.63251 2.99998 8.49991 2.99998Z" fill="#0CF6FC"/>
<path d="M23.829 19.624L19.829 16.124C19.7567 16.0608 19.6678 16.0198 19.5728 16.0058C19.4779 15.9918 19.3809 16.0055 19.2935 16.0451C19.2061 16.0848 19.1319 16.1488 19.0799 16.2294C19.0278 16.3101 19.0001 16.404 19 16.5V19H15.5C15.3674 19 15.2402 19.0527 15.1464 19.1464C15.0527 19.2402 15 19.3674 15 19.5V20.5C15 20.6326 15.0527 20.7598 15.1464 20.8535C15.2402 20.9473 15.3674 21 15.5 21H19V23.5C19.0001 23.596 19.0278 23.6899 19.0799 23.7706C19.1319 23.8512 19.2061 23.9152 19.2935 23.9548C19.3809 23.9945 19.4779 24.0081 19.5728 23.9941C19.6678 23.9802 19.7567 23.9391 19.829 23.876L23.829 20.376C23.8825 20.3291 23.9254 20.2712 23.9548 20.2064C23.9842 20.1415 23.9994 20.0712 23.9994 20C23.9994 19.9288 23.9842 19.8584 23.9548 19.7936C23.9254 19.7287 23.8825 19.6709 23.829 19.624Z" fill="#0CF6FC"/>
</svg>
