<svg width="24" height="19" viewBox="0 0 24 19" fill="none" xmlns="http://www.w3.org/2000/svg">
<path d="M1 18C2.05994 18.0001 3.10599 17.7589 4.0589 17.2947C4.81998 16.924 5.50571 16.4188 6.08387 15.8052C6.30657 15.5689 6.69343 15.5689 6.91612 15.8052C7.49427 16.4189 8.17999 16.9241 8.94108 17.2948C9.89399 17.759 10.94 18.0002 12 18.0002C13.06 18.0002 14.106 17.759 15.0589 17.2948C15.82 16.9241 16.5057 16.4189 17.0839 15.8052C17.3066 15.5689 17.6934 15.5689 17.9161 15.8052C18.4943 16.4188 19.18 16.924 19.9411 17.2947C20.894 17.7589 21.9401 18.0001 23 18" stroke="#0CF6FC" stroke-width="2" stroke-miterlimit="10" stroke-linecap="square"/>
<path d="M1 11C2.05994 11.0001 3.10599 10.7589 4.0589 10.2947C4.81998 9.92399 5.50571 9.41881 6.08387 8.80523C6.30657 8.56888 6.69343 8.56889 6.91612 8.80524C7.49427 9.41885 8.17999 9.92406 8.94108 10.2948C9.89399 10.759 10.94 11.0002 12 11.0002C13.06 11.0002 14.106 10.759 15.0589 10.2948C15.82 9.92406 16.5057 9.41885 17.0839 8.80524C17.3066 8.56889 17.6934 8.56888 17.9161 8.80523C18.4943 9.41881 19.18 9.92399 19.9411 10.2947C20.894 10.7589 21.9401 11.0001 23 11" stroke="#0CF6FC" stroke-width="2" stroke-miterlimit="10" stroke-linecap="square"/>
<path d="M1 4.00004C2.05994 4.00006 3.10599 3.75886 4.0589 3.29471C4.81998 2.92399 5.50571 2.41881 6.08387 1.80523C6.30657 1.56888 6.69342 1.56888 6.91612 1.80523C7.39724 2.31586 7.9534 2.752 8.56649 3.09806C9.36531 3.54896 10.2451 3.8381 11.1557 3.94898C12.0663 4.05985 12.9898 3.99028 13.8735 3.74425C14.7572 3.49821 15.5837 3.08053 16.306 2.51504C16.5831 2.29837 16.843 2.06118 17.0838 1.80562C17.3066 1.56917 17.6936 1.56906 17.9164 1.80548C18.4945 2.41895 19.1801 2.92404 19.9411 3.29471C20.894 3.75886 21.9401 4.00006 23 4.00004" stroke="#0CF6FC" stroke-width="2" stroke-miterlimit="10" stroke-linecap="square"/>
</svg>
