<svg width="1252" height="737" viewBox="0 0 1252 737" fill="none" xmlns="http://www.w3.org/2000/svg">
<g filter="url(#filter0_f)">
<mask id="mask0" mask-type="alpha" maskUnits="userSpaceOnUse" x="15" y="15" width="1222" height="707">
<rect x="15" y="15" width="1222" height="707" fill="url(#paint0_radial)"/>
</mask>
    <g mask="url(#mask0)">
    <rect x="-20.1025" y="8.46027" width="65.1503" height="65.1503" stroke="#0CF6FC" stroke-opacity="0.3" stroke-width="1.5"/>
    <rect x="-20.1025" y="74.0693" width="65.1503" height="65.1503" stroke="#0CF6FC" stroke-opacity="0.3" stroke-width="1.5"/>
    <rect x="-20.1025" y="139.678" width="65.1503" height="65.1503" stroke="#0CF6FC" stroke-opacity="0.3" stroke-width="1.5"/>
    <rect x="-20.1025" y="205.287" width="65.1503" height="65.1503" stroke="#0CF6FC" stroke-opacity="0.3" stroke-width="1.5"/>
    <rect x="-20.1025" y="270.896" width="65.1503" height="65.1503" stroke="#0CF6FC" stroke-opacity="0.3" stroke-width="1.5"/>
    <rect x="-20.1025" y="336.505" width="65.1503" height="65.1503" stroke="#0CF6FC" stroke-opacity="0.3" stroke-width="1.5"/>
    <rect x="-20.1025" y="402.114" width="65.1503" height="65.1503" stroke="#0CF6FC" stroke-opacity="0.3" stroke-width="1.5"/>
    <rect x="-20.1025" y="467.723" width="65.1503" height="65.1503" stroke="#0CF6FC" stroke-opacity="0.3" stroke-width="1.5"/>
    <rect x="-20.1025" y="533.331" width="65.1503" height="65.1503" stroke="#0CF6FC" stroke-opacity="0.3" stroke-width="1.5"/>
    <rect x="-20.1025" y="598.94" width="65.1503" height="65.1503" stroke="#0CF6FC" stroke-opacity="0.3" stroke-width="1.5"/>
    <rect x="-20.1025" y="664.549" width="65.1503" height="65.1503" stroke="#0CF6FC" stroke-opacity="0.3" stroke-width="1.5"/>
    <rect x="46.5479" y="8.46027" width="65.1503" height="65.1503" stroke="#0CF6FC" stroke-opacity="0.3" stroke-width="1.5"/>
    <rect x="46.5479" y="74.0693" width="65.1503" height="65.1503" stroke="#0CF6FC" stroke-opacity="0.3" stroke-width="1.5"/>
    <rect x="46.5479" y="139.678" width="65.1503" height="65.1503" stroke="#0CF6FC" stroke-opacity="0.3" stroke-width="1.5"/>
    <rect x="46.5479" y="205.287" width="65.1503" height="65.1503" stroke="#0CF6FC" stroke-opacity="0.3" stroke-width="1.5"/>
    <rect x="46.5479" y="270.896" width="65.1503" height="65.1503" stroke="#0CF6FC" stroke-opacity="0.3" stroke-width="1.5"/>
    <rect x="46.5479" y="336.505" width="65.1503" height="65.1503" stroke="#0CF6FC" stroke-opacity="0.3" stroke-width="1.5"/>
    <rect x="46.5479" y="402.114" width="65.1503" height="65.1503" stroke="#0CF6FC" stroke-opacity="0.3" stroke-width="1.5"/>
    <rect x="46.5479" y="467.723" width="65.1503" height="65.1503" stroke="#0CF6FC" stroke-opacity="0.3" stroke-width="1.5"/>
    <rect x="46.5479" y="533.331" width="65.1503" height="65.1503" stroke="#0CF6FC" stroke-opacity="0.3" stroke-width="1.5"/>
    <rect x="46.5479" y="598.94" width="65.1503" height="65.1503" stroke="#0CF6FC" stroke-opacity="0.3" stroke-width="1.5"/>
    <rect x="46.5479" y="664.549" width="65.1503" height="65.1503" stroke="#0CF6FC" stroke-opacity="0.3" stroke-width="1.5"/>
    <rect x="113.198" y="8.46027" width="65.1503" height="65.1503" stroke="#0CF6FC" stroke-opacity="0.3" stroke-width="1.5"/>
    <rect x="113.198" y="74.0693" width="65.1503" height="65.1503" stroke="#0CF6FC" stroke-opacity="0.3" stroke-width="1.5"/>
    <rect x="113.198" y="139.678" width="65.1503" height="65.1503" stroke="#0CF6FC" stroke-opacity="0.3" stroke-width="1.5"/>
    <rect x="113.198" y="205.287" width="65.1503" height="65.1503" stroke="#0CF6FC" stroke-opacity="0.3" stroke-width="1.5"/>
    <rect x="113.198" y="270.896" width="65.1503" height="65.1503" stroke="#0CF6FC" stroke-opacity="0.3" stroke-width="1.5"/>
    <rect x="113.198" y="336.505" width="65.1503" height="65.1503" stroke="#0CF6FC" stroke-opacity="0.3" stroke-width="1.5"/>
    <rect x="113.198" y="402.114" width="65.1503" height="65.1503" stroke="#0CF6FC" stroke-opacity="0.3" stroke-width="1.5"/>
    <rect x="113.198" y="467.723" width="65.1503" height="65.1503" stroke="#0CF6FC" stroke-opacity="0.3" stroke-width="1.5"/>
    <rect x="113.198" y="533.331" width="65.1503" height="65.1503" stroke="#0CF6FC" stroke-opacity="0.3" stroke-width="1.5"/>
    <rect x="113.198" y="598.94" width="65.1503" height="65.1503" stroke="#0CF6FC" stroke-opacity="0.3" stroke-width="1.5"/>
    <rect x="113.198" y="664.549" width="65.1503" height="65.1503" stroke="#0CF6FC" stroke-opacity="0.3" stroke-width="1.5"/>
    <rect x="179.848" y="8.46027" width="65.1503" height="65.1503" stroke="#0CF6FC" stroke-opacity="0.3" stroke-width="1.5"/>
    <rect x="179.848" y="74.0693" width="65.1503" height="65.1503" stroke="#0CF6FC" stroke-opacity="0.3" stroke-width="1.5"/>
    <rect x="179.848" y="139.678" width="65.1503" height="65.1503" stroke="#0CF6FC" stroke-opacity="0.3" stroke-width="1.5"/>
    <rect x="179.848" y="205.287" width="65.1503" height="65.1503" stroke="#0CF6FC" stroke-opacity="0.3" stroke-width="1.5"/>
    <rect x="179.848" y="270.896" width="65.1503" height="65.1503" stroke="#0CF6FC" stroke-opacity="0.3" stroke-width="1.5"/>
    <rect x="179.848" y="336.505" width="65.1503" height="65.1503" stroke="#0CF6FC" stroke-opacity="0.3" stroke-width="1.5"/>
    <rect x="179.848" y="402.114" width="65.1503" height="65.1503" stroke="#0CF6FC" stroke-opacity="0.3" stroke-width="1.5"/>
    <rect x="179.848" y="467.723" width="65.1503" height="65.1503" stroke="#0CF6FC" stroke-opacity="0.3" stroke-width="1.5"/>
    <rect x="179.848" y="533.331" width="65.1503" height="65.1503" stroke="#0CF6FC" stroke-opacity="0.3" stroke-width="1.5"/>
    <rect x="179.848" y="598.94" width="65.1503" height="65.1503" stroke="#0CF6FC" stroke-opacity="0.3" stroke-width="1.5"/>
    <rect x="179.848" y="664.549" width="65.1503" height="65.1503" stroke="#0CF6FC" stroke-opacity="0.3" stroke-width="1.5"/>
    <rect x="246.499" y="8.46027" width="65.1503" height="65.1503" stroke="#0CF6FC" stroke-opacity="0.3" stroke-width="1.5"/>
    <rect x="246.499" y="74.0693" width="65.1503" height="65.1503" stroke="#0CF6FC" stroke-opacity="0.3" stroke-width="1.5"/>
    <rect x="246.499" y="139.678" width="65.1503" height="65.1503" stroke="#0CF6FC" stroke-opacity="0.3" stroke-width="1.5"/>
    <rect x="246.499" y="205.287" width="65.1503" height="65.1503" stroke="#0CF6FC" stroke-opacity="0.3" stroke-width="1.5"/>
    <rect x="246.499" y="270.896" width="65.1503" height="65.1503" stroke="#0CF6FC" stroke-opacity="0.3" stroke-width="1.5"/>
    <rect x="246.499" y="336.505" width="65.1503" height="65.1503" stroke="#0CF6FC" stroke-opacity="0.3" stroke-width="1.5"/>
    <rect x="246.499" y="402.114" width="65.1503" height="65.1503" stroke="#0CF6FC" stroke-opacity="0.3" stroke-width="1.5"/>
    <rect x="246.499" y="467.723" width="65.1503" height="65.1503" stroke="#0CF6FC" stroke-opacity="0.3" stroke-width="1.5"/>
    <rect x="246.499" y="533.331" width="65.1503" height="65.1503" stroke="#0CF6FC" stroke-opacity="0.3" stroke-width="1.5"/>
    <rect x="246.499" y="598.94" width="65.1503" height="65.1503" stroke="#0CF6FC" stroke-opacity="0.3" stroke-width="1.5"/>
    <rect x="246.499" y="664.549" width="65.1503" height="65.1503" stroke="#0CF6FC" stroke-opacity="0.3" stroke-width="1.5"/>
    <rect x="313.149" y="8.46027" width="65.1503" height="65.1503" stroke="#0CF6FC" stroke-opacity="0.3" stroke-width="1.5"/>
    <rect x="313.149" y="74.0693" width="65.1503" height="65.1503" stroke="#0CF6FC" stroke-opacity="0.3" stroke-width="1.5"/>
    <rect x="313.149" y="139.678" width="65.1503" height="65.1503" stroke="#0CF6FC" stroke-opacity="0.3" stroke-width="1.5"/>
    <rect x="313.149" y="205.287" width="65.1503" height="65.1503" stroke="#0CF6FC" stroke-opacity="0.3" stroke-width="1.5"/>
    <rect x="313.149" y="270.896" width="65.1503" height="65.1503" stroke="#0CF6FC" stroke-opacity="0.3" stroke-width="1.5"/>
    <rect x="313.149" y="336.505" width="65.1503" height="65.1503" stroke="#0CF6FC" stroke-opacity="0.3" stroke-width="1.5"/>
    <rect x="313.149" y="402.114" width="65.1503" height="65.1503" stroke="#0CF6FC" stroke-opacity="0.3" stroke-width="1.5"/>
    <rect x="313.149" y="467.723" width="65.1503" height="65.1503" stroke="#0CF6FC" stroke-opacity="0.3" stroke-width="1.5"/>
    <rect x="313.149" y="533.331" width="65.1503" height="65.1503" stroke="#0CF6FC" stroke-opacity="0.3" stroke-width="1.5"/>
    <rect x="313.149" y="598.94" width="65.1503" height="65.1503" stroke="#0CF6FC" stroke-opacity="0.3" stroke-width="1.5"/>
    <rect x="313.149" y="664.549" width="65.1503" height="65.1503" stroke="#0CF6FC" stroke-opacity="0.3" stroke-width="1.5"/>
    <rect x="379.799" y="8.46027" width="65.1503" height="65.1503" stroke="#0CF6FC" stroke-opacity="0.3" stroke-width="1.5"/>
    <rect x="379.799" y="74.0693" width="65.1503" height="65.1503" stroke="#0CF6FC" stroke-opacity="0.3" stroke-width="1.5"/>
    <rect x="379.799" y="139.678" width="65.1503" height="65.1503" stroke="#0CF6FC" stroke-opacity="0.3" stroke-width="1.5"/>
    <rect x="379.799" y="205.287" width="65.1503" height="65.1503" stroke="#0CF6FC" stroke-opacity="0.3" stroke-width="1.5"/>
    <rect x="379.799" y="270.896" width="65.1503" height="65.1503" stroke="#0CF6FC" stroke-opacity="0.3" stroke-width="1.5"/>
    <rect x="379.799" y="336.505" width="65.1503" height="65.1503" stroke="#0CF6FC" stroke-opacity="0.3" stroke-width="1.5"/>
    <rect x="379.799" y="402.114" width="65.1503" height="65.1503" stroke="#0CF6FC" stroke-opacity="0.3" stroke-width="1.5"/>
    <rect x="379.799" y="467.723" width="65.1503" height="65.1503" stroke="#0CF6FC" stroke-opacity="0.3" stroke-width="1.5"/>
    <rect x="379.799" y="533.331" width="65.1503" height="65.1503" stroke="#0CF6FC" stroke-opacity="0.3" stroke-width="1.5"/>
    <rect x="379.799" y="598.94" width="65.1503" height="65.1503" stroke="#0CF6FC" stroke-opacity="0.3" stroke-width="1.5"/>
    <rect x="379.799" y="664.549" width="65.1503" height="65.1503" stroke="#0CF6FC" stroke-opacity="0.3" stroke-width="1.5"/>
    <rect x="446.449" y="8.46027" width="65.1503" height="65.1503" stroke="#0CF6FC" stroke-opacity="0.3" stroke-width="1.5"/>
    <rect x="446.449" y="74.0693" width="65.1503" height="65.1503" stroke="#0CF6FC" stroke-opacity="0.3" stroke-width="1.5"/>
    <rect x="446.449" y="139.678" width="65.1503" height="65.1503" stroke="#0CF6FC" stroke-opacity="0.3" stroke-width="1.5"/>
    <rect x="446.449" y="205.287" width="65.1503" height="65.1503" stroke="#0CF6FC" stroke-opacity="0.3" stroke-width="1.5"/>
    <rect x="446.449" y="270.896" width="65.1503" height="65.1503" stroke="#0CF6FC" stroke-opacity="0.3" stroke-width="1.5"/>
    <rect x="446.449" y="336.505" width="65.1503" height="65.1503" stroke="#0CF6FC" stroke-opacity="0.3" stroke-width="1.5"/>
    <rect x="446.449" y="402.114" width="65.1503" height="65.1503" stroke="#0CF6FC" stroke-opacity="0.3" stroke-width="1.5"/>
    <rect x="446.449" y="467.723" width="65.1503" height="65.1503" stroke="#0CF6FC" stroke-opacity="0.3" stroke-width="1.5"/>
    <rect x="446.449" y="533.331" width="65.1503" height="65.1503" stroke="#0CF6FC" stroke-opacity="0.3" stroke-width="1.5"/>
    <rect x="446.449" y="598.94" width="65.1503" height="65.1503" stroke="#0CF6FC" stroke-opacity="0.3" stroke-width="1.5"/>
    <rect x="446.449" y="664.549" width="65.1503" height="65.1503" stroke="#0CF6FC" stroke-opacity="0.3" stroke-width="1.5"/>
    <rect x="513.1" y="8.46027" width="65.1503" height="65.1503" stroke="#0CF6FC" stroke-opacity="0.3" stroke-width="1.5"/>
    <rect x="513.1" y="74.0693" width="65.1503" height="65.1503" stroke="#0CF6FC" stroke-opacity="0.3" stroke-width="1.5"/>
    <rect x="513.1" y="139.678" width="65.1503" height="65.1503" stroke="#0CF6FC" stroke-opacity="0.3" stroke-width="1.5"/>
    <rect x="513.1" y="205.287" width="65.1503" height="65.1503" stroke="#0CF6FC" stroke-opacity="0.3" stroke-width="1.5"/>
    <rect x="513.1" y="270.896" width="65.1503" height="65.1503" stroke="#0CF6FC" stroke-opacity="0.3" stroke-width="1.5"/>
    <rect x="513.1" y="336.505" width="65.1503" height="65.1503" stroke="#0CF6FC" stroke-opacity="0.3" stroke-width="1.5"/>
    <rect x="513.1" y="402.114" width="65.1503" height="65.1503" stroke="#0CF6FC" stroke-opacity="0.3" stroke-width="1.5"/>
    <rect x="513.1" y="467.723" width="65.1503" height="65.1503" stroke="#0CF6FC" stroke-opacity="0.3" stroke-width="1.5"/>
    <rect x="513.1" y="533.331" width="65.1503" height="65.1503" stroke="#0CF6FC" stroke-opacity="0.3" stroke-width="1.5"/>
    <rect x="513.1" y="598.94" width="65.1503" height="65.1503" stroke="#0CF6FC" stroke-opacity="0.3" stroke-width="1.5"/>
    <rect x="513.1" y="664.549" width="65.1503" height="65.1503" stroke="#0CF6FC" stroke-opacity="0.3" stroke-width="1.5"/>
    <rect x="579.75" y="8.46027" width="65.1503" height="65.1503" stroke="#0CF6FC" stroke-opacity="0.3" stroke-width="1.5"/>
    <rect x="579.75" y="74.0693" width="65.1503" height="65.1503" stroke="#0CF6FC" stroke-opacity="0.3" stroke-width="1.5"/>
    <rect x="579.75" y="139.678" width="65.1503" height="65.1503" stroke="#0CF6FC" stroke-opacity="0.3" stroke-width="1.5"/>
    <rect x="579.75" y="205.287" width="65.1503" height="65.1503" stroke="#0CF6FC" stroke-opacity="0.3" stroke-width="1.5"/>
    <rect x="579.75" y="270.896" width="65.1503" height="65.1503" stroke="#0CF6FC" stroke-opacity="0.3" stroke-width="1.5"/>
    <rect x="579.75" y="336.505" width="65.1503" height="65.1503" stroke="#0CF6FC" stroke-opacity="0.3" stroke-width="1.5"/>
    <rect x="579.75" y="402.114" width="65.1503" height="65.1503" stroke="#0CF6FC" stroke-opacity="0.3" stroke-width="1.5"/>
    <rect x="579.75" y="467.723" width="65.1503" height="65.1503" stroke="#0CF6FC" stroke-opacity="0.3" stroke-width="1.5"/>
    <rect x="579.75" y="533.331" width="65.1503" height="65.1503" stroke="#0CF6FC" stroke-opacity="0.3" stroke-width="1.5"/>
    <rect x="579.75" y="598.94" width="65.1503" height="65.1503" stroke="#0CF6FC" stroke-opacity="0.3" stroke-width="1.5"/>
    <rect x="579.75" y="664.549" width="65.1503" height="65.1503" stroke="#0CF6FC" stroke-opacity="0.3" stroke-width="1.5"/>
    <rect x="646.4" y="8.46027" width="65.1503" height="65.1503" stroke="#0CF6FC" stroke-opacity="0.3" stroke-width="1.5"/>
    <rect x="646.4" y="74.0693" width="65.1503" height="65.1503" stroke="#0CF6FC" stroke-opacity="0.3" stroke-width="1.5"/>
    <rect x="646.4" y="139.678" width="65.1503" height="65.1503" stroke="#0CF6FC" stroke-opacity="0.3" stroke-width="1.5"/>
    <rect x="646.4" y="205.287" width="65.1503" height="65.1503" stroke="#0CF6FC" stroke-opacity="0.3" stroke-width="1.5"/>
    <rect x="646.4" y="270.896" width="65.1503" height="65.1503" stroke="#0CF6FC" stroke-opacity="0.3" stroke-width="1.5"/>
    <rect x="646.4" y="336.505" width="65.1503" height="65.1503" stroke="#0CF6FC" stroke-opacity="0.3" stroke-width="1.5"/>
    <rect x="646.4" y="402.114" width="65.1503" height="65.1503" stroke="#0CF6FC" stroke-opacity="0.3" stroke-width="1.5"/>
    <rect x="646.4" y="467.723" width="65.1503" height="65.1503" stroke="#0CF6FC" stroke-opacity="0.3" stroke-width="1.5"/>
    <rect x="646.4" y="533.331" width="65.1503" height="65.1503" stroke="#0CF6FC" stroke-opacity="0.3" stroke-width="1.5"/>
    <rect x="646.4" y="598.94" width="65.1503" height="65.1503" stroke="#0CF6FC" stroke-opacity="0.3" stroke-width="1.5"/>
    <rect x="646.4" y="664.549" width="65.1503" height="65.1503" stroke="#0CF6FC" stroke-opacity="0.3" stroke-width="1.5"/>
    <rect x="713.051" y="8.46027" width="65.1503" height="65.1503" stroke="#0CF6FC" stroke-opacity="0.3" stroke-width="1.5"/>
    <rect x="713.051" y="74.0693" width="65.1503" height="65.1503" stroke="#0CF6FC" stroke-opacity="0.3" stroke-width="1.5"/>
    <rect x="713.051" y="139.678" width="65.1503" height="65.1503" stroke="#0CF6FC" stroke-opacity="0.3" stroke-width="1.5"/>
    <rect x="713.051" y="205.287" width="65.1503" height="65.1503" stroke="#0CF6FC" stroke-opacity="0.3" stroke-width="1.5"/>
    <rect x="713.051" y="270.896" width="65.1503" height="65.1503" stroke="#0CF6FC" stroke-opacity="0.3" stroke-width="1.5"/>
    <rect x="713.051" y="336.505" width="65.1503" height="65.1503" stroke="#0CF6FC" stroke-opacity="0.3" stroke-width="1.5"/>
    <rect x="713.051" y="402.114" width="65.1503" height="65.1503" stroke="#0CF6FC" stroke-opacity="0.3" stroke-width="1.5"/>
    <rect x="713.051" y="467.723" width="65.1503" height="65.1503" stroke="#0CF6FC" stroke-opacity="0.3" stroke-width="1.5"/>
    <rect x="713.051" y="533.331" width="65.1503" height="65.1503" stroke="#0CF6FC" stroke-opacity="0.3" stroke-width="1.5"/>
    <rect x="713.051" y="598.94" width="65.1503" height="65.1503" stroke="#0CF6FC" stroke-opacity="0.3" stroke-width="1.5"/>
    <rect x="713.051" y="664.549" width="65.1503" height="65.1503" stroke="#0CF6FC" stroke-opacity="0.3" stroke-width="1.5"/>
    <rect x="779.701" y="8.46027" width="65.1503" height="65.1503" stroke="#0CF6FC" stroke-opacity="0.3" stroke-width="1.5"/>
    <rect x="779.701" y="74.0693" width="65.1503" height="65.1503" stroke="#0CF6FC" stroke-opacity="0.3" stroke-width="1.5"/>
    <rect x="779.701" y="139.678" width="65.1503" height="65.1503" stroke="#0CF6FC" stroke-opacity="0.3" stroke-width="1.5"/>
    <rect x="779.701" y="205.287" width="65.1503" height="65.1503" stroke="#0CF6FC" stroke-opacity="0.3" stroke-width="1.5"/>
    <rect x="779.701" y="270.896" width="65.1503" height="65.1503" stroke="#0CF6FC" stroke-opacity="0.3" stroke-width="1.5"/>
    <rect x="779.701" y="336.505" width="65.1503" height="65.1503" stroke="#0CF6FC" stroke-opacity="0.3" stroke-width="1.5"/>
    <rect x="779.701" y="402.114" width="65.1503" height="65.1503" stroke="#0CF6FC" stroke-opacity="0.3" stroke-width="1.5"/>
    <rect x="779.701" y="467.723" width="65.1503" height="65.1503" stroke="#0CF6FC" stroke-opacity="0.3" stroke-width="1.5"/>
    <rect x="779.701" y="533.331" width="65.1503" height="65.1503" stroke="#0CF6FC" stroke-opacity="0.3" stroke-width="1.5"/>
    <rect x="779.701" y="598.94" width="65.1503" height="65.1503" stroke="#0CF6FC" stroke-opacity="0.3" stroke-width="1.5"/>
    <rect x="779.701" y="664.549" width="65.1503" height="65.1503" stroke="#0CF6FC" stroke-opacity="0.3" stroke-width="1.5"/>
    <rect x="846.351" y="8.46027" width="65.1503" height="65.1503" stroke="#0CF6FC" stroke-opacity="0.3" stroke-width="1.5"/>
    <rect x="846.351" y="74.0693" width="65.1503" height="65.1503" stroke="#0CF6FC" stroke-opacity="0.3" stroke-width="1.5"/>
    <rect x="846.351" y="139.678" width="65.1503" height="65.1503" stroke="#0CF6FC" stroke-opacity="0.3" stroke-width="1.5"/>
    <rect x="846.351" y="205.287" width="65.1503" height="65.1503" stroke="#0CF6FC" stroke-opacity="0.3" stroke-width="1.5"/>
    <rect x="846.351" y="270.896" width="65.1503" height="65.1503" stroke="#0CF6FC" stroke-opacity="0.3" stroke-width="1.5"/>
    <rect x="846.351" y="336.505" width="65.1503" height="65.1503" stroke="#0CF6FC" stroke-opacity="0.3" stroke-width="1.5"/>
    <rect x="846.351" y="402.114" width="65.1503" height="65.1503" stroke="#0CF6FC" stroke-opacity="0.3" stroke-width="1.5"/>
    <rect x="846.351" y="467.723" width="65.1503" height="65.1503" stroke="#0CF6FC" stroke-opacity="0.3" stroke-width="1.5"/>
    <rect x="846.351" y="533.331" width="65.1503" height="65.1503" stroke="#0CF6FC" stroke-opacity="0.3" stroke-width="1.5"/>
    <rect x="846.351" y="598.94" width="65.1503" height="65.1503" stroke="#0CF6FC" stroke-opacity="0.3" stroke-width="1.5"/>
    <rect x="846.351" y="664.549" width="65.1503" height="65.1503" stroke="#0CF6FC" stroke-opacity="0.3" stroke-width="1.5"/>
    <rect x="913.001" y="8.46027" width="65.1503" height="65.1503" stroke="#0CF6FC" stroke-opacity="0.3" stroke-width="1.5"/>
    <rect x="913.001" y="74.0693" width="65.1503" height="65.1503" stroke="#0CF6FC" stroke-opacity="0.3" stroke-width="1.5"/>
    <rect x="913.001" y="139.678" width="65.1503" height="65.1503" stroke="#0CF6FC" stroke-opacity="0.3" stroke-width="1.5"/>
    <rect x="913.001" y="205.287" width="65.1503" height="65.1503" stroke="#0CF6FC" stroke-opacity="0.3" stroke-width="1.5"/>
    <rect x="913.001" y="270.896" width="65.1503" height="65.1503" stroke="#0CF6FC" stroke-opacity="0.3" stroke-width="1.5"/>
    <rect x="913.001" y="336.505" width="65.1503" height="65.1503" stroke="#0CF6FC" stroke-opacity="0.3" stroke-width="1.5"/>
    <rect x="913.001" y="402.114" width="65.1503" height="65.1503" stroke="#0CF6FC" stroke-opacity="0.3" stroke-width="1.5"/>
    <rect x="913.001" y="467.723" width="65.1503" height="65.1503" stroke="#0CF6FC" stroke-opacity="0.3" stroke-width="1.5"/>
    <rect x="913.001" y="533.331" width="65.1503" height="65.1503" stroke="#0CF6FC" stroke-opacity="0.3" stroke-width="1.5"/>
    <rect x="913.001" y="598.94" width="65.1503" height="65.1503" stroke="#0CF6FC" stroke-opacity="0.3" stroke-width="1.5"/>
    <rect x="913.001" y="664.549" width="65.1503" height="65.1503" stroke="#0CF6FC" stroke-opacity="0.3" stroke-width="1.5"/>
    <rect x="979.652" y="8.46027" width="65.1503" height="65.1503" stroke="#0CF6FC" stroke-opacity="0.3" stroke-width="1.5"/>
    <rect x="979.652" y="74.0693" width="65.1503" height="65.1503" stroke="#0CF6FC" stroke-opacity="0.3" stroke-width="1.5"/>
    <rect x="979.652" y="139.678" width="65.1503" height="65.1503" stroke="#0CF6FC" stroke-opacity="0.3" stroke-width="1.5"/>
    <rect x="979.652" y="205.287" width="65.1503" height="65.1503" stroke="#0CF6FC" stroke-opacity="0.3" stroke-width="1.5"/>
    <rect x="979.652" y="270.896" width="65.1503" height="65.1503" stroke="#0CF6FC" stroke-opacity="0.3" stroke-width="1.5"/>
    <rect x="979.652" y="336.505" width="65.1503" height="65.1503" stroke="#0CF6FC" stroke-opacity="0.3" stroke-width="1.5"/>
    <rect x="979.652" y="402.114" width="65.1503" height="65.1503" stroke="#0CF6FC" stroke-opacity="0.3" stroke-width="1.5"/>
    <rect x="979.652" y="467.723" width="65.1503" height="65.1503" stroke="#0CF6FC" stroke-opacity="0.3" stroke-width="1.5"/>
    <rect x="979.652" y="533.331" width="65.1503" height="65.1503" stroke="#0CF6FC" stroke-opacity="0.3" stroke-width="1.5"/>
    <rect x="979.652" y="598.94" width="65.1503" height="65.1503" stroke="#0CF6FC" stroke-opacity="0.3" stroke-width="1.5"/>
    <rect x="979.652" y="664.549" width="65.1503" height="65.1503" stroke="#0CF6FC" stroke-opacity="0.3" stroke-width="1.5"/>
    <rect x="1046.3" y="8.46027" width="65.1503" height="65.1503" stroke="#0CF6FC" stroke-opacity="0.3" stroke-width="1.5"/>
    <rect x="1046.3" y="74.0693" width="65.1503" height="65.1503" stroke="#0CF6FC" stroke-opacity="0.3" stroke-width="1.5"/>
    <rect x="1046.3" y="139.678" width="65.1503" height="65.1503" stroke="#0CF6FC" stroke-opacity="0.3" stroke-width="1.5"/>
    <rect x="1046.3" y="205.287" width="65.1503" height="65.1503" stroke="#0CF6FC" stroke-opacity="0.3" stroke-width="1.5"/>
    <rect x="1046.3" y="270.896" width="65.1503" height="65.1503" stroke="#0CF6FC" stroke-opacity="0.3" stroke-width="1.5"/>
    <rect x="1046.3" y="336.505" width="65.1503" height="65.1503" stroke="#0CF6FC" stroke-opacity="0.3" stroke-width="1.5"/>
    <rect x="1046.3" y="402.114" width="65.1503" height="65.1503" stroke="#0CF6FC" stroke-opacity="0.3" stroke-width="1.5"/>
    <rect x="1046.3" y="467.723" width="65.1503" height="65.1503" stroke="#0CF6FC" stroke-opacity="0.3" stroke-width="1.5"/>
    <rect x="1046.3" y="533.331" width="65.1503" height="65.1503" stroke="#0CF6FC" stroke-opacity="0.3" stroke-width="1.5"/>
    <rect x="1046.3" y="598.94" width="65.1503" height="65.1503" stroke="#0CF6FC" stroke-opacity="0.3" stroke-width="1.5"/>
    <rect x="1046.3" y="664.549" width="65.1503" height="65.1503" stroke="#0CF6FC" stroke-opacity="0.3" stroke-width="1.5"/>
    <rect x="1112.95" y="8.46027" width="65.1503" height="65.1503" stroke="#0CF6FC" stroke-opacity="0.3" stroke-width="1.5"/>
    <rect x="1112.95" y="74.0693" width="65.1503" height="65.1503" stroke="#0CF6FC" stroke-opacity="0.3" stroke-width="1.5"/>
    <rect x="1112.95" y="139.678" width="65.1503" height="65.1503" stroke="#0CF6FC" stroke-opacity="0.3" stroke-width="1.5"/>
    <rect x="1112.95" y="205.287" width="65.1503" height="65.1503" stroke="#0CF6FC" stroke-opacity="0.3" stroke-width="1.5"/>
    <rect x="1112.95" y="270.896" width="65.1503" height="65.1503" stroke="#0CF6FC" stroke-opacity="0.3" stroke-width="1.5"/>
    <rect x="1112.95" y="336.505" width="65.1503" height="65.1503" stroke="#0CF6FC" stroke-opacity="0.3" stroke-width="1.5"/>
    <rect x="1112.95" y="402.114" width="65.1503" height="65.1503" stroke="#0CF6FC" stroke-opacity="0.3" stroke-width="1.5"/>
    <rect x="1112.95" y="467.723" width="65.1503" height="65.1503" stroke="#0CF6FC" stroke-opacity="0.3" stroke-width="1.5"/>
    <rect x="1112.95" y="533.331" width="65.1503" height="65.1503" stroke="#0CF6FC" stroke-opacity="0.3" stroke-width="1.5"/>
    <rect x="1112.95" y="598.94" width="65.1503" height="65.1503" stroke="#0CF6FC" stroke-opacity="0.3" stroke-width="1.5"/>
    <rect x="1112.95" y="664.549" width="65.1503" height="65.1503" stroke="#0CF6FC" stroke-opacity="0.3" stroke-width="1.5"/>
    <rect x="1179.6" y="8.46027" width="65.1503" height="65.1503" stroke="#0CF6FC" stroke-opacity="0.3" stroke-width="1.5"/>
    <rect x="1179.6" y="74.0693" width="65.1503" height="65.1503" stroke="#0CF6FC" stroke-opacity="0.3" stroke-width="1.5"/>
    <rect x="1179.6" y="139.678" width="65.1503" height="65.1503" stroke="#0CF6FC" stroke-opacity="0.3" stroke-width="1.5"/>
    <rect x="1179.6" y="205.287" width="65.1503" height="65.1503" stroke="#0CF6FC" stroke-opacity="0.3" stroke-width="1.5"/>
    <rect x="1179.6" y="270.896" width="65.1503" height="65.1503" stroke="#0CF6FC" stroke-opacity="0.3" stroke-width="1.5"/>
    <rect x="1179.6" y="336.505" width="65.1503" height="65.1503" stroke="#0CF6FC" stroke-opacity="0.3" stroke-width="1.5"/>
    <rect x="1179.6" y="402.114" width="65.1503" height="65.1503" stroke="#0CF6FC" stroke-opacity="0.3" stroke-width="1.5"/>
    <rect x="1179.6" y="467.723" width="65.1503" height="65.1503" stroke="#0CF6FC" stroke-opacity="0.3" stroke-width="1.5"/>
    <rect x="1179.6" y="533.331" width="65.1503" height="65.1503" stroke="#0CF6FC" stroke-opacity="0.3" stroke-width="1.5"/>
    <rect x="1179.6" y="598.94" width="65.1503" height="65.1503" stroke="#0CF6FC" stroke-opacity="0.3" stroke-width="1.5"/>
    <rect x="1179.6" y="664.549" width="65.1503" height="65.1503" stroke="#0CF6FC" stroke-opacity="0.3" stroke-width="1.5"/>
    </g>
</g>
<defs>
<filter id="filter0_f" x="0" y="0" width="1252" height="737" filterUnits="userSpaceOnUse" color-interpolation-filters="sRGB">
<feFlood flood-opacity="0" result="BackgroundImageFix"/>
<feBlend mode="normal" in="SourceGraphic" in2="BackgroundImageFix" result="shape"/>
<feGaussianBlur stdDeviation="1" result="effect1_foregroundBlur"/>
</filter>
<radialGradient id="paint0_radial" cx="0" cy="0" r="1" gradientUnits="userSpaceOnUse" gradientTransform="translate(640 403) rotate(-90) scale(561 1175.29)">
<stop offset="0.369572" stop-color="#C4C4C4"/>
<stop offset="0.6" stop-color="#C4C4C4" stop-opacity="0"/>
</radialGradient>
</defs>
</svg>
