<svg width="97" height="32" viewBox="0 0 97 32" fill="none" xmlns="http://www.w3.org/2000/svg">
<path d="M11.23 25C16.1929 25 19.2705 22.438 19.2705 18.3452C19.2705 15.2676 16.9502 12.9634 13.792 12.7217V12.5928C16.2573 12.2222 18.1587 10.0952 18.1587 7.54932C18.1587 3.98828 15.4194 1.74854 11.0527 1.74854H0.933594V25H11.23ZM5.7998 5.37402H9.7959C12.0679 5.37402 13.373 6.4375 13.373 8.30664C13.373 10.2725 11.8906 11.4165 9.29639 11.4165H5.7998V5.37402ZM5.7998 21.3745V14.623H9.87646C12.7446 14.623 14.3076 15.7832 14.3076 17.9585C14.3076 20.1821 12.793 21.3745 9.98926 21.3745H5.7998ZM21.6392 25H26.3442V15.3481C26.3442 12.915 27.6978 11.4971 30.0181 11.4971C30.6948 11.4971 31.3394 11.6099 31.7261 11.771V7.62988C31.4038 7.5332 30.9365 7.45264 30.3887 7.45264C28.3584 7.45264 26.8921 8.64502 26.2798 10.8364H26.1831V7.72656H21.6392V25ZM36.0767 5.39014C37.4463 5.39014 38.5259 4.29443 38.5259 2.97314C38.5259 1.63574 37.4463 0.556152 36.0767 0.556152C34.707 0.556152 33.6274 1.63574 33.6274 2.97314C33.6274 4.29443 34.707 5.39014 36.0767 5.39014ZM33.7402 25H38.4453V7.72656H33.7402V25ZM48.0005 25.2739C50.5464 25.2739 52.5444 23.9365 53.3823 22.0352H53.4629V25H58.1035V1.74854H53.3984V10.6914H53.3018C52.4639 8.77393 50.5303 7.45264 48.0327 7.45264C43.6982 7.45264 40.959 10.8525 40.959 16.3311C40.959 21.8579 43.6821 25.2739 48.0005 25.2739ZM49.5957 11.2231C51.9321 11.2231 53.4307 13.2212 53.4307 16.3633C53.4307 19.5215 51.9321 21.4873 49.5957 21.4873C47.2271 21.4873 45.7769 19.5376 45.7769 16.3633C45.7769 13.2051 47.2271 11.2231 49.5957 11.2231ZM69.1411 31.5098C74.3135 31.5098 77.7617 28.8672 77.7617 24.7583V7.72656H73.1211V10.7397H73.0405C72.1382 8.75781 70.1885 7.45264 67.707 7.45264C63.3242 7.45264 60.6172 10.8203 60.6172 16.2988C60.6172 21.6968 63.4048 24.9517 67.6265 24.9517C70.124 24.9517 72.1543 23.6948 72.96 21.8579H73.0566V24.8872C73.0566 26.8853 71.7031 28.2227 69.27 28.2227C67.4814 28.2227 66.1279 27.417 65.7573 26.2246H61.1489C61.5195 29.3022 64.5972 31.5098 69.1411 31.5098ZM69.2217 21.3262C66.8853 21.3262 65.4351 19.4893 65.4351 16.3311C65.4351 13.189 66.9014 11.2231 69.2217 11.2231C71.5742 11.2231 73.0728 13.2212 73.0728 16.3311C73.0728 19.457 71.5742 21.3262 69.2217 21.3262ZM92.2798 19.7148C91.8447 21.0361 90.5234 21.8901 88.7993 21.8901C86.3984 21.8901 84.8354 20.1982 84.8354 17.7329V17.4429H96.7432V16.0088C96.7432 10.7559 93.5688 7.35596 88.5415 7.35596C83.4336 7.35596 80.2109 10.9331 80.2109 16.4438C80.2109 21.9707 83.4014 25.3706 88.7188 25.3706C92.9888 25.3706 96.0825 23.0986 96.5981 19.7148H92.2798ZM88.5898 10.8364C90.6846 10.8364 92.1187 12.3511 92.2153 14.5586H84.8838C85.0449 12.3994 86.5273 10.8364 88.5898 10.8364Z" fill="white"/>
</svg>
