<svg width="127" height="23" viewBox="0 0 127 23" fill="none" xmlns="http://www.w3.org/2000/svg">
<path fill-rule="evenodd" clip-rule="evenodd" d="M14.1111 16.7157L12.3694 14.9519C11.7078 15.5691 11.0391 16.058 10.3626 16.4183C9.68674 16.7782 8.87819 16.9582 7.93758 16.9582C7.20251 16.9582 6.52278 16.8151 5.89807 16.5283C5.27338 16.2416 4.73316 15.8487 4.27742 15.3486C3.82168 14.8489 3.46917 14.2648 3.21899 13.596C2.96912 12.9273 2.84448 12.2104 2.84448 11.4466C2.84448 10.6821 2.96912 9.96911 3.21899 9.30757C3.46917 8.64631 3.82168 8.06954 4.27742 7.57694C4.73316 7.08466 5.27338 6.69528 5.89807 6.40853C6.52278 6.12207 7.20251 5.9787 7.93758 5.9787C8.81929 5.9787 9.60583 6.15509 10.2966 6.50788C10.9876 6.86037 11.6418 7.32351 12.2587 7.89671L14.0008 5.89066C13.6334 5.53787 13.244 5.21453 12.8322 4.92035C12.4208 4.62645 11.9726 4.37272 11.4874 4.15974C11.0022 3.94647 10.4694 3.78138 9.88872 3.66388C9.30805 3.54608 8.66491 3.48718 7.95959 3.48718C6.78366 3.48718 5.71066 3.69689 4.74059 4.11572C3.77023 4.53454 2.93252 5.10775 2.22692 5.83533C1.5213 6.56291 0.973939 7.41156 0.584245 8.38187C0.194549 9.35188 0 10.3882 0 11.4906C0 12.6076 0.198416 13.6511 0.595252 14.6213C0.992086 15.5911 1.53974 16.4326 2.23792 17.1456C2.93609 17.8583 3.76278 18.4205 4.71829 18.8322C5.67377 19.2438 6.71762 19.4494 7.84922 19.4494C8.56971 19.4494 9.22743 19.3869 9.82268 19.262C10.4179 19.137 10.9656 18.9536 11.4653 18.7111C11.9651 18.4684 12.4319 18.1817 12.8656 17.8512C13.299 17.5204 13.7143 17.1417 14.1111 16.7157Z" fill="#0CF6FC"/>
<path fill-rule="evenodd" clip-rule="evenodd" d="M49.0972 7.85721C49.0972 7.34379 49.3165 6.90753 49.7553 6.54843C50.1937 6.18874 50.8079 6.00919 51.5973 6.00919C52.299 6.00919 52.9934 6.14511 53.6804 6.41636C54.3677 6.68762 55.062 7.07996 55.7635 7.59308L57.2108 5.5474C56.4218 4.91674 55.5775 4.43656 54.6783 4.10684C53.7789 3.77683 52.7668 3.61182 51.6411 3.61182C50.8809 3.61182 50.1792 3.71807 49.5396 3.93085C48.8963 4.14334 48.3485 4.44755 47.8913 4.84344C47.4346 5.23964 47.0763 5.7124 46.8132 6.26233C46.5538 6.81227 46.4222 7.42452 46.4222 8.0991C46.4222 8.81759 46.5354 9.42628 46.762 9.92487C46.9887 10.4234 47.3212 10.8487 47.7526 11.2007C48.1837 11.5527 48.7209 11.8459 49.3567 12.0807C49.9964 12.3154 50.7239 12.5276 51.5461 12.7184C52.2627 12.8944 52.8434 13.063 53.2931 13.2242C53.7389 13.3856 54.0899 13.558 54.3494 13.7411C54.605 13.9245 54.7807 14.1261 54.8756 14.3459C54.9706 14.5662 55.018 14.8151 55.018 15.0938C55.018 15.6954 54.7733 16.1721 54.2836 16.5237C53.7937 16.876 53.1322 17.0516 52.299 17.0516C51.3342 17.0516 50.4715 16.8792 49.7115 16.5347C48.9511 16.1902 48.1984 15.6954 47.4526 15.0499L45.8301 16.9858C46.7511 17.8215 47.7526 18.4412 48.8343 18.8445C49.9162 19.2478 51.049 19.4494 52.233 19.4494C53.0372 19.4494 53.7756 19.3467 54.4481 19.1416C55.1168 18.9359 55.6943 18.6353 56.1694 18.2394C56.6481 17.8435 57.021 17.3597 57.2913 16.7878C57.5582 16.216 57.6934 15.5634 57.6934 14.83C57.6934 14.1848 57.5875 13.6239 57.3754 13.1473C57.1632 12.6706 56.8491 12.253 56.4399 11.8934C56.0304 11.5343 55.5115 11.2298 54.8901 10.9805C54.2691 10.7315 53.5525 10.5042 52.7485 10.2988C52.0139 10.1228 51.4109 9.95395 50.9322 9.7928C50.457 9.63165 50.0842 9.45566 49.81 9.26483C49.5396 9.0743 49.3535 8.86893 49.2508 8.64902C49.1487 8.42881 49.0972 8.16498 49.0972 7.85721Z" fill="#0CF6FC"/>
<path fill-rule="evenodd" clip-rule="evenodd" d="M79.1153 8.07523V19.0753H81.7947V3.73663H78.9174L74.2395 10.9897L69.5615 3.73663H66.6846V19.0753H69.3638V8.11899L74.1733 15.3065H74.2614L79.1153 8.07523Z" fill="#0CF6FC"/>
<path fill-rule="evenodd" clip-rule="evenodd" d="M104.306 11.4906C104.306 12.2402 104.178 12.9494 103.921 13.6184C103.664 14.287 103.309 14.8674 102.853 15.3596C102.399 15.8519 101.852 16.2416 101.214 16.5283C100.576 16.8152 99.8752 16.9582 99.1124 16.9582C98.3493 16.9582 97.6451 16.8112 96.9996 16.5174C96.354 16.2232 95.8 15.8263 95.338 15.3269C94.8759 14.827 94.5164 14.2427 94.2595 13.574C94.003 12.9053 93.8744 12.1959 93.8744 11.4466C93.8744 10.6967 94.003 9.98756 94.2595 9.31888C94.5164 8.64988 94.8721 8.06955 95.327 7.57695C95.7819 7.08466 96.3285 6.69528 96.9666 6.40853C97.6047 6.12209 98.3054 5.9787 99.0681 5.9787C99.8313 5.9787 100.536 6.12566 101.181 6.41984C101.826 6.71373 102.38 7.11054 102.842 7.61027C103.305 8.1097 103.664 8.69421 103.921 9.36289C104.178 10.0316 104.306 10.741 104.306 11.4906ZM107.145 11.4466C107.145 10.3588 106.947 9.32986 106.551 8.35956C106.155 7.38984 105.604 6.54447 104.9 5.82432C104.196 5.10388 103.352 4.53454 102.369 4.11572C101.386 3.69689 100.301 3.48718 99.1124 3.48718C97.9239 3.48718 96.8383 3.70047 95.8552 4.12672C94.8721 4.55298 94.0211 5.12975 93.3023 5.85733C92.5831 6.58492 92.0261 7.43387 91.6297 8.40388C91.2336 9.37389 91.0356 10.4028 91.0356 11.4906C91.0356 12.5782 91.2336 13.6067 91.6297 14.5771C92.0261 15.5473 92.576 16.3924 93.2803 17.1126C93.9843 17.8327 94.8282 18.4023 95.8113 18.8211C96.7941 19.24 97.8796 19.4494 99.0681 19.4494C100.256 19.4494 101.342 19.2361 102.325 18.8102C103.309 18.384 104.159 17.8071 104.878 17.0792C105.597 16.352 106.155 15.503 106.551 14.533C106.947 13.563 107.145 12.5341 107.145 11.4466Z" fill="#0CF6FC"/>
<path fill-rule="evenodd" clip-rule="evenodd" d="M118.404 7.85721C118.404 7.34379 118.623 6.90753 119.062 6.54843C119.5 6.18874 120.114 6.00919 120.904 6.00919C121.605 6.00919 122.3 6.14511 122.987 6.41636C123.674 6.68762 124.368 7.07996 125.07 7.59308L126.518 5.5474C125.728 4.91674 124.884 4.43656 123.985 4.10684C123.086 3.77683 122.073 3.61182 120.948 3.61182C120.188 3.61182 119.486 3.71807 118.846 3.93085C118.203 4.14334 117.655 4.44755 117.198 4.84344C116.741 5.23964 116.383 5.7124 116.12 6.26233C115.86 6.81227 115.729 7.42452 115.729 8.0991C115.729 8.81759 115.842 9.42628 116.069 9.92487C116.295 10.4234 116.628 10.8487 117.059 11.2007C117.49 11.5527 118.028 11.8459 118.664 12.0807C119.303 12.3154 120.031 12.5276 120.853 12.7184C121.569 12.8944 122.15 13.063 122.6 13.2242C123.045 13.3856 123.397 13.558 123.656 13.7411C123.912 13.9245 124.087 14.1261 124.182 14.3459C124.278 14.5662 124.325 14.8151 124.325 15.0938C124.325 15.6954 124.079 16.1721 123.59 16.5237C123.1 16.876 122.439 17.0516 121.605 17.0516C120.641 17.0516 119.778 16.8792 119.018 16.5347C118.258 16.1902 117.505 15.6954 116.759 15.0499L115.137 16.9858C116.057 17.8215 117.059 18.4412 118.141 18.8445C119.223 19.2478 120.355 19.4494 121.54 19.4494C122.344 19.4494 123.082 19.3467 123.755 19.1416C124.423 18.9359 125.001 18.6353 125.476 18.2394C125.955 17.8435 126.328 17.3597 126.598 16.7878C126.865 16.216 127 15.5634 127 14.83C127 14.1848 126.893 13.6239 126.683 13.1473C126.47 12.6706 126.155 12.253 125.746 11.8934C125.337 11.5343 124.818 11.2298 124.197 10.9805C123.576 10.7315 122.859 10.5042 122.055 10.2988C121.321 10.1228 120.718 9.95395 120.239 9.7928C119.764 9.63165 119.391 9.45566 119.117 9.26483C118.846 9.0743 118.66 8.86893 118.557 8.64902C118.455 8.42881 118.404 8.16498 118.404 7.85721Z" fill="#0CF6FC"/>
<path fill-rule="evenodd" clip-rule="evenodd" d="M32.4908 6.80721L25.1493 14.1389C25.0547 13.9554 24.9692 13.7643 24.8927 13.566C24.6364 12.8999 24.5081 12.1931 24.5081 11.4466C24.5081 10.6996 24.6364 9.99311 24.8927 9.32695C25.1493 8.66049 25.5049 8.08235 25.9594 7.59161C26.4141 7.10117 26.9604 6.71328 27.598 6.42761C28.2361 6.14224 28.9361 5.99941 29.6985 5.99941C30.4611 5.99941 31.165 6.1458 31.8098 6.43888C32.0496 6.54763 32.2766 6.6703 32.4908 6.80721ZM31.843 16.5092C31.205 16.7948 30.505 16.9374 29.7427 16.9374C28.98 16.9374 28.2762 16.791 27.631 16.4983C27.3915 16.3891 27.1646 16.2665 26.9506 16.1293L34.2917 8.79827C34.3865 8.98141 34.4719 9.17225 34.5484 9.37079C34.8048 10.037 34.933 10.7437 34.933 11.4905C34.933 12.2372 34.8048 12.9436 34.5484 13.6101C34.2917 14.2763 33.9363 14.8545 33.4816 15.3449C33.027 15.8354 32.481 16.2236 31.843 16.5092ZM32.9537 18.7824C33.9363 18.3578 34.7867 17.7832 35.5052 17.058C36.2235 16.3335 36.7805 15.4877 37.1764 14.5213C37.5725 13.5551 37.7704 12.53 37.7704 11.4466C37.7704 10.3629 37.5725 9.33791 37.1764 8.37127C36.9417 7.79816 36.6526 7.2689 36.3096 6.7832L41.0845 2.01489L39.1872 0.120117L34.3978 4.90296C33.9678 4.61019 33.5009 4.35712 32.9977 4.14346C32.0151 3.72622 30.9302 3.5173 29.7427 3.5173C28.5548 3.5173 27.4699 3.72977 26.4874 4.15443C25.5049 4.57907 24.6543 5.15366 23.936 5.8785C23.2175 6.60333 22.6603 7.44907 22.2644 8.41543C21.8685 9.38177 21.6706 10.4068 21.6706 11.4905C21.6706 12.5739 21.8685 13.5986 22.2644 14.5653C22.4994 15.1386 22.7884 15.6679 23.1315 16.1539L18.3569 20.9217L20.2542 22.8164L25.0434 18.0338C25.4734 18.3266 25.9402 18.5798 26.4435 18.7933C27.426 19.2105 28.5109 19.4193 29.6985 19.4193C30.8863 19.4193 31.9712 19.2067 32.9537 18.7824Z" fill="#0CF6FC"/>
</svg>
