<svg width="127" height="24" viewBox="0 0 127 24" fill="none" xmlns="http://www.w3.org/2000/svg">
<path fill-rule="evenodd" clip-rule="evenodd" d="M14.1111 17.2158L12.3694 15.4519C11.7078 16.0692 11.0391 16.5581 10.3626 16.9183C9.68674 17.2783 8.87819 17.4582 7.93758 17.4582C7.20251 17.4582 6.52278 17.3151 5.89807 17.0284C5.27338 16.7416 4.73316 16.3487 4.27742 15.8486C3.82168 15.349 3.46917 14.7648 3.21899 14.0961C2.96912 13.4273 2.84448 12.7105 2.84448 11.9466C2.84448 11.1821 2.96912 10.4691 3.21899 9.8076C3.46917 9.14634 3.82168 8.56957 4.27742 8.07697C4.73316 7.58469 5.27338 7.19532 5.89807 6.90856C6.52278 6.6221 7.20251 6.47873 7.93758 6.47873C8.81929 6.47873 9.60583 6.65512 10.2966 7.00792C10.9876 7.3604 11.6418 7.82354 12.2587 8.39674L14.0008 6.39069C13.6334 6.0379 13.244 5.71456 12.8322 5.42038C12.4208 5.12648 11.9726 4.87275 11.4874 4.65977C11.0022 4.4465 10.4694 4.28141 9.88872 4.16391C9.30805 4.04611 8.66491 3.98721 7.95959 3.98721C6.78366 3.98721 5.71066 4.19692 4.74059 4.61575C3.77023 5.03457 2.93252 5.60778 2.22692 6.33536C1.5213 7.06294 0.973939 7.91159 0.584245 8.8819C0.194549 9.85191 0 10.8883 0 11.9906C0 13.1076 0.198416 14.1511 0.595252 15.1214C0.992086 16.0911 1.53974 16.9326 2.23792 17.6456C2.93609 18.3584 3.76278 18.9206 4.71829 19.3322C5.67377 19.7438 6.71762 19.9495 7.84922 19.9495C8.56971 19.9495 9.22743 19.887 9.82268 19.7621C10.4179 19.6371 10.9656 19.4536 11.4653 19.2112C11.9651 18.9685 12.4319 18.6817 12.8656 18.3512C13.299 18.0204 13.7143 17.6418 14.1111 17.2158Z" fill="#EA1078"/>
<path fill-rule="evenodd" clip-rule="evenodd" d="M49.0972 8.35724C49.0972 7.84382 49.3165 7.40756 49.7553 7.04846C50.1937 6.68877 50.8079 6.50922 51.5973 6.50922C52.299 6.50922 52.9934 6.64514 53.6804 6.91639C54.3677 7.18765 55.062 7.57999 55.7635 8.09311L57.2108 6.04743C56.4218 5.41677 55.5775 4.93659 54.6783 4.60687C53.7789 4.27686 52.7668 4.11185 51.6411 4.11185C50.8809 4.11185 50.1792 4.2181 49.5396 4.43088C48.8963 4.64337 48.3485 4.94758 47.8913 5.34347C47.4346 5.73967 47.0763 6.21243 46.8132 6.76236C46.5538 7.3123 46.4222 7.92455 46.4222 8.59913C46.4222 9.31762 46.5354 9.92631 46.762 10.4249C46.9887 10.9235 47.3212 11.3488 47.7526 11.7007C48.1837 12.0527 48.7209 12.3459 49.3567 12.5807C49.9964 12.8155 50.7239 13.0277 51.5461 13.2184C52.2627 13.3944 52.8434 13.5631 53.2931 13.7242C53.7389 13.8857 54.0899 14.0581 54.3494 14.2411C54.605 14.4245 54.7807 14.6261 54.8756 14.846C54.9706 15.0662 55.018 15.3152 55.018 15.5938C55.018 16.1955 54.7733 16.6721 54.2836 17.0237C53.7937 17.3761 53.1322 17.5517 52.299 17.5517C51.3342 17.5517 50.4715 17.3793 49.7115 17.0347C48.9511 16.6902 48.1984 16.1955 47.4526 15.5499L45.8301 17.4858C46.7511 18.3215 47.7526 18.9412 48.8343 19.3446C49.9162 19.7479 51.049 19.9494 52.233 19.9494C53.0372 19.9494 53.7756 19.8467 54.4481 19.6416C55.1168 19.436 55.6943 19.1353 56.1694 18.7394C56.6481 18.3436 57.021 17.8597 57.2913 17.2879C57.5582 16.716 57.6934 16.0634 57.6934 15.33C57.6934 14.6849 57.5875 14.1239 57.3754 13.6473C57.1632 13.1707 56.8491 12.7531 56.4399 12.3934C56.0304 12.0343 55.5115 11.7298 54.8901 11.4805C54.2691 11.2315 53.5525 11.0042 52.7485 10.7988C52.0139 10.6228 51.4109 10.454 50.9322 10.2928C50.457 10.1317 50.0842 9.95569 49.81 9.76486C49.5396 9.57434 49.3535 9.36896 49.2508 9.14905C49.1487 8.92884 49.0972 8.66501 49.0972 8.35724Z" fill="#EA1078"/>
<path fill-rule="evenodd" clip-rule="evenodd" d="M79.1153 8.5752V19.5753H81.7947V4.2366H78.9174L74.2395 11.4897L69.5615 4.2366H66.6846V19.5753H69.3638V8.61896L74.1733 15.8065H74.2614L79.1153 8.5752Z" fill="#EA1078"/>
<path fill-rule="evenodd" clip-rule="evenodd" d="M104.306 11.9906C104.306 12.7402 104.178 13.4494 103.921 14.1184C103.664 14.787 103.309 15.3674 102.853 15.8597C102.399 16.3519 101.852 16.7416 101.214 17.0284C100.576 17.3152 99.8752 17.4582 99.1124 17.4582C98.3493 17.4582 97.6451 17.3112 96.9996 17.0174C96.354 16.7233 95.8 16.3264 95.338 15.8269C94.8759 15.327 94.5164 14.7427 94.2595 14.074C94.003 13.4054 93.8744 12.696 93.8744 11.9466C93.8744 11.1967 94.003 10.4876 94.2595 9.81891C94.5164 9.14991 94.8721 8.56958 95.327 8.07699C95.7819 7.58469 96.3285 7.19532 96.9666 6.90856C97.6047 6.62212 98.3054 6.47873 99.0681 6.47873C99.8313 6.47873 100.536 6.62569 101.181 6.91987C101.826 7.21376 102.38 7.61057 102.842 8.1103C103.305 8.60973 103.664 9.19424 103.921 9.86292C104.178 10.5316 104.306 11.241 104.306 11.9906ZM107.145 11.9466C107.145 10.8588 106.947 9.8299 106.551 8.85959C106.155 7.88987 105.604 7.0445 104.9 6.32435C104.196 5.60391 103.352 5.03457 102.369 4.61575C101.386 4.19692 100.301 3.98721 99.1124 3.98721C97.9239 3.98721 96.8383 4.2005 95.8552 4.62675C94.8721 5.05301 94.0211 5.62978 93.3023 6.35736C92.5831 7.08495 92.0261 7.9339 91.6297 8.90391C91.2336 9.87392 91.0356 10.9028 91.0356 11.9906C91.0356 13.0782 91.2336 14.1067 91.6297 15.0771C92.0261 16.0473 92.576 16.8924 93.2803 17.6126C93.9843 18.3327 94.8282 18.9023 95.8113 19.3212C96.7941 19.74 97.8796 19.9495 99.0681 19.9495C100.256 19.9495 101.342 19.7362 102.325 19.3103C103.309 18.884 104.159 18.3072 104.878 17.5793C105.597 16.852 106.155 16.003 106.551 15.0331C106.947 14.0631 107.145 13.0342 107.145 11.9466Z" fill="#EA1078"/>
<path fill-rule="evenodd" clip-rule="evenodd" d="M118.404 8.35724C118.404 7.84382 118.623 7.40756 119.062 7.04846C119.5 6.68877 120.114 6.50922 120.904 6.50922C121.605 6.50922 122.3 6.64514 122.987 6.91639C123.674 7.18765 124.368 7.57999 125.07 8.09311L126.518 6.04743C125.728 5.41677 124.884 4.93659 123.985 4.60687C123.086 4.27686 122.073 4.11185 120.948 4.11185C120.188 4.11185 119.486 4.2181 118.846 4.43088C118.203 4.64337 117.655 4.94758 117.198 5.34347C116.741 5.73967 116.383 6.21243 116.12 6.76236C115.86 7.3123 115.729 7.92455 115.729 8.59913C115.729 9.31762 115.842 9.92631 116.069 10.4249C116.295 10.9235 116.628 11.3488 117.059 11.7007C117.49 12.0527 118.028 12.3459 118.664 12.5807C119.303 12.8155 120.031 13.0277 120.853 13.2184C121.569 13.3944 122.15 13.5631 122.6 13.7242C123.045 13.8857 123.397 14.0581 123.656 14.2411C123.912 14.4245 124.087 14.6261 124.182 14.846C124.278 15.0662 124.325 15.3152 124.325 15.5938C124.325 16.1955 124.079 16.6721 123.59 17.0237C123.1 17.3761 122.439 17.5517 121.605 17.5517C120.641 17.5517 119.778 17.3793 119.018 17.0347C118.258 16.6902 117.505 16.1955 116.759 15.5499L115.137 17.4858C116.057 18.3215 117.059 18.9412 118.141 19.3446C119.223 19.7479 120.355 19.9494 121.54 19.9494C122.344 19.9494 123.082 19.8467 123.755 19.6416C124.423 19.436 125.001 19.1353 125.476 18.7394C125.955 18.3436 126.328 17.8597 126.598 17.2879C126.865 16.716 127 16.0634 127 15.33C127 14.6849 126.893 14.1239 126.683 13.6473C126.47 13.1707 126.155 12.7531 125.746 12.3934C125.337 12.0343 124.818 11.7298 124.197 11.4805C123.576 11.2315 122.859 11.0042 122.055 10.7988C121.321 10.6228 120.718 10.454 120.239 10.2928C119.764 10.1317 119.391 9.95569 119.117 9.76486C118.846 9.57434 118.66 9.36896 118.557 9.14905C118.455 8.92884 118.404 8.66501 118.404 8.35724Z" fill="#EA1078"/>
<path fill-rule="evenodd" clip-rule="evenodd" d="M32.4908 7.30721L25.1493 14.6389C25.0547 14.4554 24.9692 14.2643 24.8927 14.066C24.6364 13.3999 24.5081 12.6931 24.5081 11.9466C24.5081 11.1996 24.6364 10.4931 24.8927 9.82695C25.1493 9.16049 25.5049 8.58235 25.9594 8.09161C26.4141 7.60117 26.9604 7.21328 27.598 6.92761C28.2361 6.64224 28.9361 6.49941 29.6985 6.49941C30.4611 6.49941 31.165 6.6458 31.8098 6.93888C32.0496 7.04763 32.2766 7.1703 32.4908 7.30721ZM31.843 17.0092C31.205 17.2948 30.505 17.4374 29.7427 17.4374C28.98 17.4374 28.2762 17.291 27.631 16.9983C27.3915 16.8891 27.1646 16.7665 26.9506 16.6293L34.2917 9.29827C34.3865 9.48141 34.4719 9.67225 34.5484 9.87079C34.8048 10.537 34.933 11.2437 34.933 11.9905C34.933 12.7372 34.8048 13.4436 34.5484 14.1101C34.2917 14.7763 33.9363 15.3545 33.4816 15.8449C33.027 16.3354 32.481 16.7236 31.843 17.0092ZM32.9537 19.2824C33.9363 18.8578 34.7867 18.2832 35.5052 17.558C36.2235 16.8335 36.7805 15.9877 37.1764 15.0213C37.5725 14.0551 37.7704 13.03 37.7704 11.9466C37.7704 10.8629 37.5725 9.83791 37.1764 8.87127C36.9417 8.29816 36.6526 7.7689 36.3096 7.2832L41.0845 2.51489L39.1872 0.620117L34.3978 5.40296C33.9678 5.11019 33.5009 4.85712 32.9977 4.64346C32.0151 4.22622 30.9302 4.0173 29.7427 4.0173C28.5548 4.0173 27.4699 4.22977 26.4874 4.65443C25.5049 5.07907 24.6543 5.65366 23.936 6.3785C23.2175 7.10333 22.6603 7.94907 22.2644 8.91543C21.8685 9.88177 21.6706 10.9068 21.6706 11.9905C21.6706 13.0739 21.8685 14.0986 22.2644 15.0653C22.4994 15.6386 22.7884 16.1679 23.1315 16.6539L18.3569 21.4217L20.2542 23.3164L25.0434 18.5338C25.4734 18.8266 25.9402 19.0798 26.4435 19.2933C27.426 19.7105 28.5109 19.9193 29.6985 19.9193C30.8863 19.9193 31.9712 19.7067 32.9537 19.2824Z" fill="#EA1078"/>
</svg>
