<svg width="109" height="24" viewBox="0 0 109 24" fill="none" xmlns="http://www.w3.org/2000/svg">
<g clip-path="url(#clip0)">
<path d="M17.0364 15.4209C17.0364 17.1739 16.7443 18.5618 16.1599 19.6209C15.5755 20.6801 14.8816 21.5384 14.0781 22.1958C12.9459 23.1636 11.3572 23.6384 9.33022 23.6384H0.802246V6.58246H7.35801C8.34411 6.58246 9.18413 6.63724 9.89631 6.74681C10.5902 6.85638 11.2294 7.02073 11.7955 7.2216C12.3616 7.42247 12.8364 7.64161 13.2381 7.89726C13.6399 8.15292 13.9868 8.40858 14.2973 8.70075C14.8451 9.17554 15.3016 9.74164 15.7216 10.3808C16.1234 11.0199 16.4521 11.7869 16.6895 12.6269C16.9086 13.4852 17.0364 14.4165 17.0364 15.4209ZM12.1972 15.1835C12.1972 13.7956 11.9598 12.7182 11.4668 11.933C10.9737 11.1478 10.3894 10.6364 9.69544 10.3808C9.00151 10.1251 8.30759 9.97904 7.5954 9.97904H5.56841V20.0775H7.5954C8.83716 20.0775 9.91457 19.7488 10.8276 19.1096C11.7407 18.507 12.1972 17.1922 12.1972 15.1835Z" fill="#0CF6FC"/>
<path d="M42.9855 15.0922C42.9855 16.6809 42.6385 18.1418 41.9629 19.4931C41.2872 20.8262 40.2646 21.8853 38.9315 22.6888C37.5802 23.4741 35.955 23.8758 34.0193 23.8758C32.0653 23.8758 30.4218 23.4741 29.0705 22.6523C27.7192 21.8305 26.7148 20.7531 26.0574 19.4201C25.4 18.087 25.0713 16.6444 25.0713 15.1287C25.0713 13.5948 25.4 12.1704 26.0574 10.8373C26.7148 9.50425 27.7192 8.42684 29.0705 7.60509C30.4218 6.78334 32.0836 6.38159 34.0375 6.38159C35.4984 6.38159 36.795 6.61899 37.9454 7.07552C39.0959 7.55031 40.0272 8.17119 40.7576 8.97468C41.4881 9.77817 42.0542 10.7095 42.4377 11.7686C42.8029 12.8095 42.9855 13.9235 42.9855 15.0922ZM38.128 15.0922C38.128 14.453 38.0367 13.8687 37.8724 13.3391C37.6898 12.8095 37.4341 12.353 37.0871 11.9695C36.7402 11.586 36.3019 11.2756 35.7906 11.0565C35.2793 10.8373 34.6949 10.7278 34.0193 10.7278C32.741 10.7278 31.7366 11.1295 31.0062 11.933C30.2757 12.7365 29.9105 13.7956 29.9105 15.0922C29.9105 16.3887 30.2757 17.4479 31.0062 18.2514C31.7366 19.0548 32.741 19.4566 34.001 19.4566C34.8775 19.4566 35.6263 19.274 36.2289 18.8905C36.8497 18.5253 37.3063 17.9957 37.635 17.3383C37.9819 16.6992 38.128 15.9504 38.128 15.0922Z" fill="#0CF6FC"/>
<path d="M70.4318 23.6384H65.6656V13.7591L61.3742 19.4748H60.9907L56.6811 13.7591V23.6384H52.061V6.58246H56.3707L61.2281 12.9739L66.1039 6.58246H70.4135V23.6384H70.4318Z" fill="#0CF6FC"/>
<path d="M97.4401 15.0922C97.4401 16.6809 97.0931 18.1418 96.4175 19.4931C95.7418 20.8262 94.7192 21.8853 93.3861 22.6888C92.0348 23.4741 90.4095 23.8758 88.4739 23.8758C86.5199 23.8758 84.8764 23.4741 83.5251 22.6523C82.1737 21.8305 81.1694 20.7531 80.512 19.4201C79.8546 18.087 79.5259 16.6444 79.5259 15.1287C79.5259 13.5948 79.8546 12.1704 80.512 10.8373C81.1694 9.50425 82.1737 8.42684 83.5251 7.60509C84.8764 6.78334 86.5382 6.38159 88.4921 6.38159C89.953 6.38159 91.2496 6.61899 92.4 7.07552C93.5505 7.55031 94.4818 8.17119 95.2122 8.97468C95.9427 9.77817 96.5088 10.7095 96.8923 11.7686C97.2392 12.8095 97.4401 13.9235 97.4401 15.0922ZM92.5826 15.0922C92.5826 14.453 92.4913 13.8687 92.327 13.3391C92.1444 12.8095 91.8887 12.353 91.5417 11.9695C91.1948 11.586 90.7565 11.2756 90.2452 11.0565C89.7339 10.8373 89.1495 10.7278 88.4739 10.7278C87.1956 10.7278 86.1912 11.1295 85.4608 11.933C84.7303 12.7365 84.3651 13.7956 84.3651 15.0922C84.3651 16.3887 84.7303 17.4479 85.4608 18.2514C86.1912 19.0548 87.1956 19.4566 88.4556 19.4566C89.3321 19.4566 90.0808 19.274 90.6835 18.8905C91.3043 18.5253 91.7609 17.9957 92.0896 17.3383C92.4183 16.6992 92.5826 15.9504 92.5826 15.0922Z" fill="#0CF6FC"/>
<path d="M104.672 1.10413C102.462 1.10413 100.654 2.91198 100.654 5.12158V8.99295C100.654 9.08426 100.727 9.13904 100.8 9.13904H104.672C106.881 9.13904 108.689 7.33119 108.689 5.12158C108.689 2.91198 106.881 1.10413 104.672 1.10413Z" fill="#0CF6FC"/>
</g>
<defs>
<clipPath id="clip0">
<rect width="108.709" height="23.2647" fill="white" transform="translate(0.291016 0.702393)"/>
</clipPath>
</defs>
</svg>
