<svg width="109" height="24" viewBox="0 0 109 24" fill="none" xmlns="http://www.w3.org/2000/svg">
<g clip-path="url(#clip0)">
<path d="M16.7454 14.7185C16.7454 16.4715 16.4532 17.8594 15.8689 18.9185C15.2845 19.9777 14.5906 20.836 13.7871 21.4934C12.6549 22.4612 11.0662 22.936 9.0392 22.936H0.51123V5.88007H7.06699C8.0531 5.88007 8.89311 5.93485 9.6053 6.04442C10.2992 6.15398 10.9384 6.31833 11.5045 6.51921C12.0706 6.72008 12.5453 6.93921 12.9471 7.19487C13.3488 7.45053 13.6958 7.70618 14.0062 7.99836C14.5541 8.47315 15.0106 9.03925 15.4306 9.67839C15.8324 10.3175 16.1611 11.0845 16.3985 11.9245C16.6176 12.7828 16.7454 13.7141 16.7454 14.7185ZM11.9062 14.4811C11.9062 13.0932 11.6688 12.0158 11.1758 11.2306C10.6827 10.4454 10.0983 9.93405 9.40442 9.67839C8.7105 9.42273 8.01657 9.27664 7.30439 9.27664H5.2774V19.3751H7.30439C8.54615 19.3751 9.62356 19.0464 10.5366 18.4072C11.4497 17.8046 11.9062 16.4898 11.9062 14.4811Z" fill="#EA1078"/>
<path d="M42.6945 14.3898C42.6945 15.9785 42.3475 17.4394 41.6719 18.7907C40.9962 20.1238 39.9736 21.1829 38.6405 21.9864C37.2892 22.7717 35.6639 23.1734 33.7282 23.1734C31.7743 23.1734 30.1308 22.7717 28.7795 21.9499C27.4281 21.1282 26.4238 20.0507 25.7664 18.7177C25.109 17.3846 24.7803 15.942 24.7803 14.4263C24.7803 12.8924 25.109 11.468 25.7664 10.1349C26.4238 8.80186 27.4281 7.72445 28.7795 6.9027C30.1308 6.08094 31.7926 5.6792 33.7465 5.6792C35.2074 5.6792 36.5039 5.91659 37.6544 6.37312C38.8049 6.84791 39.7362 7.46879 40.4666 8.27229C41.1971 9.07578 41.7632 10.0071 42.1467 11.0662C42.5119 12.1071 42.6945 13.2211 42.6945 14.3898ZM37.837 14.3898C37.837 13.7506 37.7457 13.1663 37.5814 12.6367C37.3987 12.1071 37.1431 11.6506 36.7961 11.2671C36.4492 10.8836 36.0109 10.5732 35.4996 10.3541C34.9883 10.1349 34.4039 10.0254 33.7282 10.0254C32.45 10.0254 31.4456 10.4271 30.7152 11.2306C29.9847 12.0341 29.6195 13.0932 29.6195 14.3898C29.6195 15.6863 29.9847 16.7455 30.7152 17.549C31.4456 18.3525 32.45 18.7542 33.71 18.7542C34.5865 18.7542 35.3352 18.5716 35.9379 18.1881C36.5587 17.8229 37.0153 17.2933 37.344 16.6359C37.6909 15.9968 37.837 15.2481 37.837 14.3898Z" fill="#EA1078"/>
<path d="M70.1408 22.936H65.3746V13.0567L61.0832 18.7725H60.6997L56.3901 13.0567V22.936H51.77V5.88007H56.0797L60.9371 12.2715L65.8129 5.88007H70.1225V22.936H70.1408Z" fill="#EA1078"/>
<path d="M97.1491 14.3898C97.1491 15.9785 96.8021 17.4394 96.1265 18.7907C95.4508 20.1238 94.4282 21.1829 93.0951 21.9864C91.7438 22.7717 90.1185 23.1734 88.1828 23.1734C86.2289 23.1734 84.5854 22.7717 83.2341 21.9499C81.8827 21.1282 80.8784 20.0507 80.221 18.7177C79.5636 17.3846 79.2349 15.942 79.2349 14.4263C79.2349 12.8924 79.5636 11.468 80.221 10.1349C80.8784 8.80186 81.8827 7.72445 83.2341 6.9027C84.5854 6.08094 86.2472 5.6792 88.2011 5.6792C89.662 5.6792 90.9585 5.91659 92.109 6.37312C93.2594 6.84791 94.1908 7.46879 94.9212 8.27229C95.6517 9.07578 96.2178 10.0071 96.6012 11.0662C96.9482 12.1071 97.1491 13.2211 97.1491 14.3898ZM92.2916 14.3898C92.2916 13.7506 92.2003 13.1663 92.0359 12.6367C91.8533 12.1071 91.5977 11.6506 91.2507 11.2671C90.9038 10.8836 90.4655 10.5732 89.9542 10.3541C89.4429 10.1349 88.8585 10.0254 88.1828 10.0254C86.9046 10.0254 85.9002 10.4271 85.1697 11.2306C84.4393 12.0341 84.0741 13.0932 84.0741 14.3898C84.0741 15.6863 84.4393 16.7455 85.1697 17.549C85.9002 18.3525 86.9046 18.7542 88.1646 18.7542C89.0411 18.7542 89.7898 18.5716 90.3924 18.1881C91.0133 17.8229 91.4699 17.2933 91.7986 16.6359C92.1273 15.9968 92.2916 15.2481 92.2916 14.3898Z" fill="#EA1078"/>
<path d="M104.381 0.401749C102.171 0.401749 100.363 2.20961 100.363 4.41921V8.29058C100.363 8.38188 100.436 8.43667 100.509 8.43667H104.381C106.59 8.43667 108.398 6.62881 108.398 4.41921C108.398 2.20961 106.59 0.401749 104.381 0.401749Z" fill="#EA1078"/>
</g>
<defs>
<clipPath id="clip0">
<rect width="108.709" height="23.2647" fill="white"/>
</clipPath>
</defs>
</svg>
