<svg width="125" height="26" viewBox="0 0 125 26" fill="none" xmlns="http://www.w3.org/2000/svg">
<path d="M5.7998 25V17.894L7.9751 15.2837L14.8716 25H20.6885L11.4878 12.061L20.0923 1.74854H14.6782L5.94482 12.3511H5.7998V1.74854H0.933594V25H5.7998ZM24.7651 5.39014C26.1348 5.39014 27.2144 4.29443 27.2144 2.97314C27.2144 1.63574 26.1348 0.556152 24.7651 0.556152C23.3955 0.556152 22.3159 1.63574 22.3159 2.97314C22.3159 4.29443 23.3955 5.39014 24.7651 5.39014ZM22.4287 25H27.1338V7.72656H22.4287V25ZM33.3374 25.1934C34.7715 25.1934 35.9316 24.0332 35.9316 22.5991C35.9316 21.1489 34.7715 20.0049 33.3374 20.0049C31.8872 20.0049 30.7432 21.1489 30.7432 22.5991C30.7432 24.0332 31.8872 25.1934 33.3374 25.1934Z" fill="#43A5FF"/>
<path d="M50.1436 25.3867C55.8477 25.3867 59.8276 22.1157 60.3755 16.9272H55.6382C55.1226 19.6826 53.0439 21.3745 50.1597 21.3745C46.4375 21.3745 44.1011 18.313 44.1011 13.3501C44.1011 8.45166 46.4697 5.37402 50.1436 5.37402C52.9795 5.37402 55.1709 7.24316 55.6221 10.0952H60.3594C59.9888 4.89062 55.7349 1.3457 50.1436 1.3457C43.4082 1.3457 39.1382 5.87354 39.1382 13.3662C39.1382 20.875 43.376 25.3867 50.1436 25.3867ZM63.0986 25H67.8037V15.1387C67.8037 12.8667 69.1089 11.3037 71.3325 11.3037C73.4756 11.3037 74.5713 12.6572 74.5713 14.8809V25H79.2764V13.8818C79.2764 9.88574 77.085 7.4043 73.25 7.4043C70.6235 7.4043 68.7383 8.62891 67.8198 10.8042H67.7231V1.74854H63.0986V25ZM87.4136 25.2739C89.5728 25.2739 91.7158 24.1943 92.6826 22.3574H92.7793V25H97.3232V13.1245C97.3232 9.64404 94.439 7.35596 90.0078 7.35596C85.4316 7.35596 82.5796 9.66016 82.4023 13.0117H86.7046C86.9302 11.7388 88.042 10.8687 89.7983 10.8687C91.5708 10.8687 92.6987 11.8032 92.6987 13.4146V14.5586L88.3481 14.8164C84.0459 15.0742 81.6289 16.895 81.6289 20.0371C81.6289 23.147 84.1265 25.2739 87.4136 25.2739ZM88.9604 21.874C87.3652 21.874 86.3018 21.0684 86.3018 19.7793C86.3018 18.5547 87.3008 17.7651 89.0571 17.6362L92.6987 17.4106V18.6675C92.6987 20.5366 91.0068 21.874 88.9604 21.874ZM102.786 5.39014C104.155 5.39014 105.235 4.29443 105.235 2.97314C105.235 1.63574 104.155 0.556152 102.786 0.556152C101.416 0.556152 100.336 1.63574 100.336 2.97314C100.336 4.29443 101.416 5.39014 102.786 5.39014ZM100.449 25H105.154V7.72656H100.449V25ZM108.296 25H113.001V15.0903C113.001 12.8506 114.339 11.3037 116.45 11.3037C118.561 11.3037 119.624 12.5928 119.624 14.8486V25H124.329V13.8657C124.329 9.82129 122.17 7.4043 118.335 7.4043C115.676 7.4043 113.855 8.66113 112.937 10.8042H112.84V7.72656H108.296V25Z" fill="white"/>
</svg>
