<svg width="211" height="14" viewBox="0 0 211 14" fill="none" xmlns="http://www.w3.org/2000/svg">
<path d="M54.7126 7.78226H50.0551V12.8492H46.626V0.309814H54.6614V2.81769H50.0039V5.2232H54.6614V7.78226H54.7126Z" fill="white"/>
<path d="M73.3938 6.55416C73.3991 7.66903 73.1543 8.7709 72.6772 9.77857C72.1889 10.7448 71.4456 11.559 70.5276 12.1329C69.4648 12.7254 68.2639 13.0256 67.0473 13.003C65.8062 13.0406 64.5804 12.7208 63.5158 12.0817C62.5719 11.5164 61.8222 10.6775 61.3662 9.67621C60.9 8.68295 60.6555 7.60017 60.6497 6.50298C60.6248 5.40249 60.8709 4.31277 61.3662 3.32975C61.8507 2.34739 62.5939 1.51573 63.5158 0.924237C64.5804 0.285118 65.8062 -0.034655 67.0473 0.0029774C67.9945 -0.0251775 68.9368 0.149319 69.8111 0.514788C70.5668 0.828872 71.2472 1.2999 71.8071 1.89668C72.3435 2.48556 72.7452 3.18415 72.9843 3.94392C73.2658 4.78497 73.4042 5.6673 73.3938 6.55416ZM69.9646 6.55416C69.98 6.11841 69.9105 5.68383 69.7599 5.27463C69.6554 4.89386 69.4625 4.54314 69.1969 4.25101C68.9483 3.95778 68.6322 3.72943 68.2756 3.58565C67.8832 3.43912 67.4661 3.36961 67.0473 3.38093C66.6474 3.36227 66.2483 3.43038 65.8772 3.58057C65.5062 3.73076 65.172 3.95947 64.8977 4.25101C64.3577 4.89585 64.0671 5.71314 64.0788 6.55416C64.0519 6.97353 64.1106 7.394 64.2514 7.78996C64.3921 8.18591 64.6121 8.54907 64.8977 8.85731C65.1678 9.15424 65.5013 9.38661 65.8734 9.53722C66.2455 9.68783 66.6467 9.75282 67.0473 9.72739C67.6037 9.73869 68.1525 9.59706 68.6339 9.31794C69.0493 9.03227 69.3842 8.6445 69.6064 8.19195C69.8679 7.68708 69.9915 7.12211 69.9646 6.55416Z" fill="white"/>
<path d="M91.6144 7.21942C91.6568 8.17296 91.4634 9.12225 91.0514 9.9832C90.7145 10.6805 90.2246 11.2928 89.6183 11.7745C89.0469 12.223 88.3824 12.5378 87.6734 12.6958C87.0097 12.8977 86.3199 13.0012 85.6262 13.0029C84.6744 13.0242 83.73 12.8318 82.8624 12.4399C81.9421 12.0686 81.1566 11.4259 80.6104 10.5974C79.9517 9.57906 79.6294 8.37957 79.6892 7.16824V0.258789H83.0671V6.1958C83.049 6.89092 83.1529 7.58383 83.3742 8.24304C83.5334 8.73152 83.8595 9.1483 84.2955 9.42021C84.7096 9.67582 85.1912 9.80067 85.6773 9.77848C86.1466 9.79383 86.6099 9.66911 87.0081 9.42021C87.4191 9.12164 87.7383 8.71383 87.9293 8.24304C88.1506 7.58383 88.2545 6.89092 88.2364 6.1958V0.258789H91.6655L91.6144 7.21942Z" fill="white"/>
<path d="M110.858 12.8492H107.839L102.004 5.88855V12.8492H98.626V0.309814H101.646L107.48 7.27044V0.309814H110.858V12.8492Z" fill="white"/>
<path d="M129.642 6.80981C129.688 7.86805 129.478 8.92183 129.027 9.88068C128.66 10.6019 128.156 11.245 127.543 11.7744C126.588 12.537 125.385 12.9198 124.165 12.8492H118.075V0.309814H122.732C123.331 0.312354 123.929 0.346523 124.524 0.412177C124.993 0.494916 125.455 0.614714 125.905 0.770444C126.266 0.899396 126.61 1.07123 126.929 1.28226C127.227 1.42836 127.489 1.63802 127.697 1.89643C128.092 2.25785 128.436 2.67104 128.72 3.12477C129.033 3.62905 129.258 4.18287 129.386 4.76257C129.578 5.42738 129.664 6.11821 129.642 6.80981ZM126.213 6.65627C126.26 5.8231 126.083 4.99243 125.701 4.25076C125.428 3.7489 124.996 3.35255 124.472 3.12477C124.004 2.92024 123.499 2.81565 122.988 2.81769H121.555V10.2389H122.988C123.815 10.2693 124.628 10.0165 125.291 9.52241C125.957 9.0106 126.213 8.14052 126.213 6.65627Z" fill="white"/>
<path d="M147.76 12.8492H144.28L143.358 10.2901H138.445L137.524 12.8492H134.043L139.059 0.309814H142.795L147.76 12.8492ZM142.591 8.14052L140.953 3.58541L139.264 8.14052H142.591Z" fill="white"/>
<path d="M162.756 3.3295H158.611V12.798H155.233V3.3295H151.087V0.309814H162.756V3.3295Z" fill="white"/>
<path d="M172.531 12.8492H169.102V0.309814H172.531V12.8492Z" fill="white"/>
<path d="M191.776 6.55416C191.781 7.66903 191.536 8.7709 191.059 9.77857C190.571 10.7448 189.827 11.559 188.909 12.1329C187.847 12.7254 186.646 13.0256 185.429 13.003C184.188 13.0406 182.962 12.7208 181.898 12.0817C180.954 11.5164 180.204 10.6775 179.748 9.67621C179.276 8.68481 179.032 7.60081 179.031 6.50298C179.007 5.40249 179.253 4.31277 179.748 3.32975C180.233 2.34739 180.976 1.51573 181.898 0.924237C182.962 0.285118 184.188 -0.034655 185.429 0.0029774C186.376 -0.0251775 187.319 0.149319 188.193 0.514788C188.949 0.828872 189.629 1.2999 190.189 1.89668C190.725 2.48556 191.127 3.18415 191.366 3.94392C191.623 4.7908 191.761 5.6693 191.776 6.55416ZM188.346 6.55416C188.362 6.11841 188.292 5.68383 188.142 5.27463C188.037 4.89386 187.844 4.54314 187.579 4.25101C187.33 3.95778 187.014 3.72943 186.657 3.58565C186.265 3.43912 185.848 3.36961 185.429 3.38093C185.029 3.36227 184.63 3.43038 184.259 3.58057C183.888 3.73076 183.554 3.95947 183.28 4.25101C182.74 4.89585 182.449 5.71314 182.461 6.55416C182.434 6.97353 182.492 7.394 182.633 7.78996C182.774 8.18591 182.994 8.54907 183.28 8.85731C183.557 9.14486 183.892 9.37091 184.262 9.5208C184.632 9.67069 185.03 9.74108 185.429 9.72739C185.986 9.73869 186.534 9.59706 187.016 9.31794C187.431 9.03227 187.766 8.6445 187.988 8.19195C188.226 7.67877 188.348 7.11971 188.346 6.55416Z" fill="white"/>
<path d="M210.252 12.8492H207.232L201.397 5.88855V12.8492H198.02V0.309814H201.039L206.874 7.27044V0.309814H210.303V12.8492H210.252Z" fill="white"/>
<path d="M11.874 12.8492H7.72835L3.42913 6.96336V12.8492H0V0.309814H3.42913V5.93974L7.52362 0.309814H11.2087L7.01181 6.19564L11.874 12.8492Z" fill="white"/>
<path d="M21.0864 12.8492H17.6572V0.309814H21.0864V12.8492Z" fill="white"/>
<path d="M33.8305 8.5499C35.1025 8.5499 36.1336 7.51875 36.1336 6.24675C36.1336 4.97476 35.1025 3.9436 33.8305 3.9436C32.5585 3.9436 31.5273 4.97476 31.5273 6.24675C31.5273 7.51875 32.5585 8.5499 33.8305 8.5499Z" fill="#06EDF7"/>
</svg>
