<svg width="24" height="24" viewBox="0 0 24 24" fill="none" xmlns="http://www.w3.org/2000/svg">
<g clip-path="url(#clip0)">
<path d="M23.9532 2.527C23.9338 2.43838 23.8912 2.35647 23.8299 2.28957C23.7687 2.22267 23.6908 2.17314 23.6042 2.146C23.2889 2.08355 22.9626 2.10669 22.6592 2.213C22.6592 2.213 1.63021 9.772 0.429212 10.609C0.171212 10.789 0.084212 10.894 0.041212 11.017C-0.166788 11.617 0.480212 11.875 0.480212 11.875L5.90021 13.641C5.99186 13.6574 6.08609 13.652 6.17521 13.625C7.40721 12.846 18.5752 5.791 19.2242 5.554C19.3242 5.524 19.4012 5.554 19.3812 5.629C19.1232 6.534 9.47221 15.107 9.41921 15.159C9.39339 15.1802 9.37328 15.2074 9.36071 15.2383C9.34813 15.2693 9.34349 15.3028 9.34721 15.336L8.84121 20.628C8.84121 20.628 8.62921 22.275 10.2762 20.628C11.4442 19.459 12.5652 18.491 13.1252 18.02C14.9892 19.307 16.9942 20.73 17.8592 21.475C18.0047 21.6158 18.1771 21.7259 18.3661 21.7986C18.5551 21.8713 18.7568 21.9051 18.9592 21.898C19.2084 21.8676 19.4425 21.7621 19.6302 21.5954C19.818 21.4287 19.9505 21.2089 20.0102 20.965C20.0102 20.965 23.8402 5.542 23.9682 3.476C23.9812 3.276 23.9982 3.144 24.0002 3.005C24.0064 2.84427 23.9906 2.68344 23.9532 2.527Z" fill="#EA1078"/>
</g>
<defs>
<clipPath id="clip0">
<rect width="24" height="24" fill="white"/>
</clipPath>
</defs>
</svg>
