<?xml version="1.0" encoding="utf-8"?>
<!-- Generator: Adobe Illustrator 23.0.1, SVG Export Plug-In . SVG Version: 6.00 Build 0)  -->
<svg version="1.1" id="Layer_1" xmlns="http://www.w3.org/2000/svg" xmlns:xlink="http://www.w3.org/1999/xlink" x="0px" y="0px"
	 viewBox="0 0 595.3 127.4" style="enable-background:new 0 0 595.3 127.4;" xml:space="preserve">
<style type="text/css">
	.st0{fill:#0000FF;}
</style>
<g>
	<g>
		<path d="M91.7,80.6c0,9.6-1.6,17.2-4.8,23c-3.2,5.8-7,10.5-11.4,14.1c-6.2,5.3-14.9,7.9-26,7.9H2.8V32.2h35.9
			c5.4,0,10,0.3,13.9,0.9c3.8,0.6,7.3,1.5,10.4,2.6c3.1,1.1,5.7,2.3,7.9,3.7c2.2,1.4,4.1,2.8,5.8,4.4c3,2.6,5.5,5.7,7.8,9.2
			c2.2,3.5,4,7.7,5.3,12.3C91,70,91.7,75.1,91.7,80.6z M65.2,79.3c0-7.6-1.3-13.5-4-17.8s-5.9-7.1-9.7-8.5
			c-3.8-1.4-7.6-2.2-11.5-2.2H28.9v55.3H40c6.8,0,12.7-1.8,17.7-5.3C62.7,97.5,65.2,90.3,65.2,79.3z"/>
		<path d="M233.8,78.8c0,8.7-1.9,16.7-5.6,24.1c-3.7,7.3-9.3,13.1-16.6,17.5c-7.4,4.3-16.3,6.5-26.9,6.5c-10.7,0-19.7-2.2-27.1-6.7
			c-7.4-4.5-12.9-10.4-16.5-17.7c-3.6-7.3-5.4-15.2-5.4-23.5c0-8.4,1.8-16.2,5.4-23.5c3.6-7.3,9.1-13.2,16.5-17.7
			c7.4-4.5,16.5-6.7,27.2-6.7c8,0,15.1,1.3,21.4,3.8c6.3,2.6,11.4,6,15.4,10.4c4,4.4,7.1,9.5,9.2,15.3
			C232.8,66.3,233.8,72.4,233.8,78.8z M207.2,78.8c0-3.5-0.5-6.7-1.4-9.6c-1-2.9-2.4-5.4-4.3-7.5c-1.9-2.1-4.3-3.8-7.1-5
			c-2.8-1.2-6-1.8-9.7-1.8c-7,0-12.5,2.2-16.5,6.6c-4,4.4-6,10.2-6,17.3s2,12.9,6,17.3c4,4.4,9.5,6.6,16.4,6.6c4.8,0,8.9-1,12.2-3.1
			c3.4-2,5.9-4.9,7.7-8.5C206.4,87.6,207.2,83.5,207.2,78.8z"/>
		<path d="M384.1,125.6H358V71.5l-23.5,31.3h-2.1l-23.6-31.3v54.1h-25.3V32.2h23.6l26.6,35l26.7-35h23.6V125.6z"/>
		<path d="M532,78.8c0,8.7-1.9,16.7-5.6,24.1c-3.7,7.3-9.3,13.1-16.6,17.5c-7.4,4.3-16.3,6.5-26.9,6.5c-10.7,0-19.7-2.2-27.1-6.7
			c-7.4-4.5-12.9-10.4-16.5-17.7c-3.6-7.3-5.4-15.2-5.4-23.5c0-8.4,1.8-16.2,5.4-23.5c3.6-7.3,9.1-13.2,16.5-17.7
			c7.4-4.5,16.5-6.7,27.2-6.7c8,0,15.1,1.3,21.4,3.8c6.3,2.6,11.4,6,15.4,10.4c4,4.4,7.1,9.5,9.2,15.3C530.9,66.3,532,72.4,532,78.8
			z M505.4,78.8c0-3.5-0.5-6.7-1.4-9.6c-1-2.9-2.4-5.4-4.3-7.5c-1.9-2.1-4.3-3.8-7.1-5c-2.8-1.2-6-1.8-9.7-1.8
			c-7,0-12.5,2.2-16.5,6.6c-4,4.4-6,10.2-6,17.3s2,12.9,6,17.3c4,4.4,9.5,6.6,16.4,6.6c4.8,0,8.9-1,12.2-3.1c3.4-2,5.9-4.9,7.7-8.5
			C504.5,87.6,505.4,83.5,505.4,78.8z"/>
	</g>
</g>
<path class="st0" d="M571.6,2.2L571.6,2.2c-12.1,0-22,9.9-22,22v21.2c0,0.5,0.4,0.8,0.8,0.8h21.2c12.1,0,22-9.9,22-22v0
	C593.6,12.1,583.7,2.2,571.6,2.2z"/>
</svg>
