<?xml version="1.0" encoding="UTF-8"?>
<svg width="820px" height="435px" viewBox="0 0 820 435" version="1.1" xmlns="http://www.w3.org/2000/svg" xmlns:xlink="http://www.w3.org/1999/xlink">
    <!-- Generator: Sketch 43.1 (39012) - http://www.bohemiancoding.com/sketch -->
    <title>Group 6</title>
    <desc>Created with Sketch.</desc>
    <defs></defs>
    <g id="Page-1" stroke="none" strokeWidth="1" fill="none" fillRule="evenodd">
        <g id="Artboard-2" transform="translate(-556.000000, -2034.000000)">
            <g id="Group-6" transform="translate(541.000000, 2034.000000)">
                <g id="stopwatch-copy-4" transform="translate(691.000000, 290.000000)" fillRule="nonzero">
                    <path d="M23.7677586,29.170125 C24.575431,29.1079286 25.3117241,28.7001964 25.7896552,28.0498214 L33.0540517,18.1106786 C33.2767241,17.8058393 33.2433621,17.3850536 32.9733621,17.1178393 C32.7033621,16.8513929 32.2781897,16.818375 31.9701724,17.0379821 L21.9258621,24.2297321 C21.2710345,24.7011964 20.8590517,25.4298929 20.7962069,26.2292321 C20.7333621,27.0285714 21.0258621,27.8110179 21.5976724,28.3769286 C22.1182759,28.8929286 22.820431,29.1785714 23.5505172,29.1785714 C23.6226724,29.1785714 23.6948276,29.1755 23.7677586,29.170125 Z M22.3432759,26.3490179 C22.370431,25.9981071 22.5519828,25.6779107 22.8375,25.472125 L28.9644828,21.0853571 L24.5335345,27.1475893 C24.3240517,27.4324643 24.0005172,27.611375 23.6459483,27.6390179 C23.292931,27.6620536 22.9461207,27.5407321 22.6939655,27.2911786 C22.4441379,27.0431607 22.3153448,26.6991607 22.3432759,26.3490179 Z" id="Shape" fill="#333333"></path>
                    <path d="M41.147069,15.0223571 C41.1393103,15.0062321 41.1393103,14.9893393 41.1307759,14.9732143 C41.1214655,14.9578571 41.1067241,14.9494107 41.0966379,14.9348214 C40.3122414,13.6033571 39.3843103,12.3648036 38.3306897,11.2421964 L39.9972414,9.59360714 L41.0943103,10.6793571 L44.3855172,7.42133929 L41.0943103,4.16408929 L37.8023276,7.42133929 L38.9001724,8.50785714 L37.2336207,10.1564464 C36.0993103,9.11369643 34.8486207,8.19457143 33.5025,7.41826786 C33.4877586,7.40828571 33.4792241,7.39369643 33.4637069,7.38448214 C33.4474138,7.37526786 33.4303448,7.37603571 33.4140517,7.36758929 C31.0143103,5.99926786 28.3181897,5.08782143 25.4436207,4.75380357 L25.4436207,3.83928571 L26.6074138,3.83928571 C27.6773276,3.83928571 28.547069,2.97851786 28.547069,1.91964286 C28.547069,0.860767857 27.6765517,0 26.6066379,0 L19.6238793,0 C18.5539655,0 17.6842241,0.860767857 17.6842241,1.91964286 C17.6842241,2.97851786 18.5539655,3.83928571 19.6238793,3.83928571 L20.7876724,3.83928571 L20.7876724,4.72692857 C19.9497414,4.81523214 19.1133621,4.950375 18.2862931,5.13773214 C17.8688793,5.23217857 17.6074138,5.64451786 17.7036207,6.057625 C17.7990517,6.47073214 18.2156897,6.73026786 18.6331034,6.63428571 C19.3468966,6.47226786 20.0676724,6.35017857 20.79,6.26801786 L21.6225,6.20428571 C21.8769828,6.18508929 22.1112931,6.17126786 22.3393966,6.16051786 L22.3393966,7.67857143 C22.3393966,8.10319643 22.6862069,8.44642857 23.1152586,8.44642857 C23.5443103,8.44642857 23.8911207,8.10319643 23.8911207,7.67857143 L23.8911207,6.16589286 C26.8091379,6.29873214 29.5587931,7.07426786 32.0035345,8.35044643 L31.2385345,9.66117857 C31.0243966,10.0289821 31.1516379,10.4981429 31.5225,10.7100714 C31.6443103,10.7799464 31.7777586,10.8129643 31.9096552,10.8129643 C32.1781034,10.8129643 32.4387931,10.6755179 32.5823276,10.4290357 L33.345,9.121375 C35.7726724,10.6455714 37.8349138,12.6865357 39.375,15.0891607 L38.0537069,15.8439643 C37.6836207,16.0558929 37.5563793,16.5250536 37.7712931,16.8928571 C37.9156034,17.1393393 38.1755172,17.2767857 38.4439655,17.2767857 C38.5758621,17.2767857 38.7093103,17.2437679 38.8311207,17.1738929 L40.1555172,16.4167857 C41.4628448,18.8708571 42.2487931,21.6366786 42.3659483,24.5706607 L40.8336207,24.5706607 C40.404569,24.5706607 40.0577586,24.9138929 40.0577586,25.3385179 C40.0577586,25.7631429 40.404569,26.106375 40.8336207,26.106375 L42.3659483,26.106375 C42.2487931,29.0403571 41.4628448,31.8061786 40.1555172,34.26025 L38.8311207,33.5031429 C38.4602586,33.2912143 37.985431,33.4156071 37.7712931,33.7841786 C37.5571552,34.1519821 37.6843966,34.6211429 38.0552586,34.8330714 L39.3765517,35.587875 C37.8364655,37.9905 35.7742241,40.0314643 33.3465517,41.5556607 L32.5838793,40.248 C32.3689655,39.8794286 31.8933621,39.7542679 31.5240517,39.9669643 C31.1524138,40.1788929 31.0251724,40.6488214 31.2400862,41.0158571 L32.0050862,42.3265893 C29.5603448,43.6027679 26.8106897,44.3783036 23.8926724,44.5111429 L23.8926724,43 C23.8926724,42.575375 23.5458621,42.2321429 23.1168103,42.2321429 C22.6877586,42.2321429 22.3409483,42.575375 22.3409483,43 L22.3409483,44.5172857 C21.1018966,44.4750536 19.8589655,44.3214821 18.635431,44.0435179 C18.2180172,43.9444643 17.8013793,44.2070714 17.7059483,44.6201786 C17.6097414,45.0332857 17.8712069,45.445625 18.2886207,45.5400714 C19.8372414,45.8932857 21.4192241,46.0714286 22.9887931,46.0714286 C23.0268103,46.0714286 23.0632759,46.069125 23.1012931,46.0683571 C23.1067241,46.0683571 23.1106034,46.0714286 23.1152586,46.0714286 C23.1214655,46.0714286 23.1268966,46.0675893 23.1331034,46.0675893 C26.8626724,46.04225 30.3618103,45.0455714 33.3892241,43.3240357 C33.4132759,43.3132857 33.4388793,43.3079107 33.4621552,43.2940893 C33.4776724,43.284875 33.4862069,43.2702857 33.5009483,43.2603036 C36.6346552,41.4527679 39.2531897,38.8643214 41.0834483,35.76525 C41.0981897,35.7445179 41.1168103,35.7283929 41.13,35.7053571 C41.1393103,35.6892321 41.1385345,35.6723393 41.1462931,35.6562143 C42.9183621,32.6155 43.937069,29.0941071 43.937069,25.3392857 C43.937069,21.5844643 42.9183621,18.0630714 41.147069,15.0223571 Z M41.0935345,6.33558929 L42.1906034,7.42133929 L41.0935345,8.50785714 L39.9956897,7.42133929 L41.0935345,6.33558929 Z M22.3393966,4.62326786 L22.3393966,2.30357143 L19.6238793,2.30357143 C19.4105172,2.30357143 19.2359483,2.13080357 19.2359483,1.91964286 C19.2359483,1.70848214 19.4105172,1.53571429 19.6238793,1.53571429 L26.6066379,1.53571429 C26.82,1.53571429 26.994569,1.70848214 26.994569,1.91964286 C26.994569,2.13080357 26.82,2.30357143 26.6066379,2.30357143 L23.8911207,2.30357143 L23.8911207,4.62326786 C23.6211207,4.61251786 23.3635345,4.60714286 23.1152586,4.60714286 C23.0935345,4.60714286 23.0687069,4.60867857 23.0469828,4.60867857 C23.0275862,4.60867857 23.0081897,4.60714286 22.9887931,4.60714286 C22.8615517,4.60714286 22.7343103,4.61558929 22.607069,4.61789286 C22.517069,4.62019643 22.4325,4.61942857 22.3393966,4.62326786 Z" id="Shape" fill="#000000"></path>
                    <path d="M16.1325,10.75 L12.2531897,10.75 C11.8241379,10.75 11.4773276,11.0932321 11.4773276,11.5178571 C11.4773276,11.9424821 11.8241379,12.2857143 12.2531897,12.2857143 L16.1325,12.2857143 C16.5615517,12.2857143 16.9083621,11.9424821 16.9083621,11.5178571 C16.9083621,11.0932321 16.5615517,10.75 16.1325,10.75 Z" id="Shape" fill="#000000"></path>
                    <path d="M16.1325,16.125 L8.37387931,16.125 C7.94482759,16.125 7.59801724,16.4682321 7.59801724,16.8928571 C7.59801724,17.3174821 7.94482759,17.6607143 8.37387931,17.6607143 L16.1325,17.6607143 C16.5615517,17.6607143 16.9083621,17.3174821 16.9083621,16.8928571 C16.9083621,16.4682321 16.5615517,16.125 16.1325,16.125 Z" id="Shape" fill="#000000"></path>
                    <path d="M16.1325,21.5 L4.49456897,21.5 C4.06551724,21.5 3.7187069,21.8432321 3.7187069,22.2678571 C3.7187069,22.6924821 4.06551724,23.0357143 4.49456897,23.0357143 L16.1325,23.0357143 C16.5615517,23.0357143 16.9083621,22.6924821 16.9083621,22.2678571 C16.9083621,21.8432321 16.5615517,21.5 16.1325,21.5 Z" id="Shape" fill="#333333"></path>
                    <path d="M16.1325,26.875 L1.39112069,26.875 C0.962068966,26.875 0.615258621,27.2182321 0.615258621,27.6428571 C0.615258621,28.0674821 0.962068966,28.4107143 1.39112069,28.4107143 L16.1325,28.4107143 C16.5615517,28.4107143 16.9083621,28.0674821 16.9083621,27.6428571 C16.9083621,27.2182321 16.5615517,26.875 16.1325,26.875 Z" id="Shape" fill="#000000"></path>
                    <path d="M16.1325,32.25 L6.0462931,32.25 C5.61724138,32.25 5.27043103,32.5932321 5.27043103,33.0178571 C5.27043103,33.4424821 5.61724138,33.7857143 6.0462931,33.7857143 L16.1325,33.7857143 C16.5615517,33.7857143 16.9083621,33.4424821 16.9083621,33.0178571 C16.9083621,32.5932321 16.5615517,32.25 16.1325,32.25 Z" id="Shape" fill="#333333"></path>
                    <path d="M16.1325,37.625 L10.7014655,37.625 C10.2724138,37.625 9.92560345,37.9682321 9.92560345,38.3928571 C9.92560345,38.8174821 10.2724138,39.1607143 10.7014655,39.1607143 L16.1325,39.1607143 C16.5615517,39.1607143 16.9083621,38.8174821 16.9083621,38.3928571 C16.9083621,37.9682321 16.5615517,37.625 16.1325,37.625 Z" id="Shape" fill="#000000"></path>
                </g>
                <g id="stopwatch-copy-5" transform="translate(165.000000, 289.000000)" fillRule="nonzero">
                    <path d="M23.7677586,29.170125 C24.575431,29.1079286 25.3117241,28.7001964 25.7896552,28.0498214 L33.0540517,18.1106786 C33.2767241,17.8058393 33.2433621,17.3850536 32.9733621,17.1178393 C32.7033621,16.8513929 32.2781897,16.818375 31.9701724,17.0379821 L21.9258621,24.2297321 C21.2710345,24.7011964 20.8590517,25.4298929 20.7962069,26.2292321 C20.7333621,27.0285714 21.0258621,27.8110179 21.5976724,28.3769286 C22.1182759,28.8929286 22.820431,29.1785714 23.5505172,29.1785714 C23.6226724,29.1785714 23.6948276,29.1755 23.7677586,29.170125 Z M22.3432759,26.3490179 C22.370431,25.9981071 22.5519828,25.6779107 22.8375,25.472125 L28.9644828,21.0853571 L24.5335345,27.1475893 C24.3240517,27.4324643 24.0005172,27.611375 23.6459483,27.6390179 C23.292931,27.6620536 22.9461207,27.5407321 22.6939655,27.2911786 C22.4441379,27.0431607 22.3153448,26.6991607 22.3432759,26.3490179 Z" id="Shape" fill="#333333"></path>
                    <path d="M41.147069,15.0223571 C41.1393103,15.0062321 41.1393103,14.9893393 41.1307759,14.9732143 C41.1214655,14.9578571 41.1067241,14.9494107 41.0966379,14.9348214 C40.3122414,13.6033571 39.3843103,12.3648036 38.3306897,11.2421964 L39.9972414,9.59360714 L41.0943103,10.6793571 L44.3855172,7.42133929 L41.0943103,4.16408929 L37.8023276,7.42133929 L38.9001724,8.50785714 L37.2336207,10.1564464 C36.0993103,9.11369643 34.8486207,8.19457143 33.5025,7.41826786 C33.4877586,7.40828571 33.4792241,7.39369643 33.4637069,7.38448214 C33.4474138,7.37526786 33.4303448,7.37603571 33.4140517,7.36758929 C31.0143103,5.99926786 28.3181897,5.08782143 25.4436207,4.75380357 L25.4436207,3.83928571 L26.6074138,3.83928571 C27.6773276,3.83928571 28.547069,2.97851786 28.547069,1.91964286 C28.547069,0.860767857 27.6765517,0 26.6066379,0 L19.6238793,0 C18.5539655,0 17.6842241,0.860767857 17.6842241,1.91964286 C17.6842241,2.97851786 18.5539655,3.83928571 19.6238793,3.83928571 L20.7876724,3.83928571 L20.7876724,4.72692857 C19.9497414,4.81523214 19.1133621,4.950375 18.2862931,5.13773214 C17.8688793,5.23217857 17.6074138,5.64451786 17.7036207,6.057625 C17.7990517,6.47073214 18.2156897,6.73026786 18.6331034,6.63428571 C19.3468966,6.47226786 20.0676724,6.35017857 20.79,6.26801786 L21.6225,6.20428571 C21.8769828,6.18508929 22.1112931,6.17126786 22.3393966,6.16051786 L22.3393966,7.67857143 C22.3393966,8.10319643 22.6862069,8.44642857 23.1152586,8.44642857 C23.5443103,8.44642857 23.8911207,8.10319643 23.8911207,7.67857143 L23.8911207,6.16589286 C26.8091379,6.29873214 29.5587931,7.07426786 32.0035345,8.35044643 L31.2385345,9.66117857 C31.0243966,10.0289821 31.1516379,10.4981429 31.5225,10.7100714 C31.6443103,10.7799464 31.7777586,10.8129643 31.9096552,10.8129643 C32.1781034,10.8129643 32.4387931,10.6755179 32.5823276,10.4290357 L33.345,9.121375 C35.7726724,10.6455714 37.8349138,12.6865357 39.375,15.0891607 L38.0537069,15.8439643 C37.6836207,16.0558929 37.5563793,16.5250536 37.7712931,16.8928571 C37.9156034,17.1393393 38.1755172,17.2767857 38.4439655,17.2767857 C38.5758621,17.2767857 38.7093103,17.2437679 38.8311207,17.1738929 L40.1555172,16.4167857 C41.4628448,18.8708571 42.2487931,21.6366786 42.3659483,24.5706607 L40.8336207,24.5706607 C40.404569,24.5706607 40.0577586,24.9138929 40.0577586,25.3385179 C40.0577586,25.7631429 40.404569,26.106375 40.8336207,26.106375 L42.3659483,26.106375 C42.2487931,29.0403571 41.4628448,31.8061786 40.1555172,34.26025 L38.8311207,33.5031429 C38.4602586,33.2912143 37.985431,33.4156071 37.7712931,33.7841786 C37.5571552,34.1519821 37.6843966,34.6211429 38.0552586,34.8330714 L39.3765517,35.587875 C37.8364655,37.9905 35.7742241,40.0314643 33.3465517,41.5556607 L32.5838793,40.248 C32.3689655,39.8794286 31.8933621,39.7542679 31.5240517,39.9669643 C31.1524138,40.1788929 31.0251724,40.6488214 31.2400862,41.0158571 L32.0050862,42.3265893 C29.5603448,43.6027679 26.8106897,44.3783036 23.8926724,44.5111429 L23.8926724,43 C23.8926724,42.575375 23.5458621,42.2321429 23.1168103,42.2321429 C22.6877586,42.2321429 22.3409483,42.575375 22.3409483,43 L22.3409483,44.5172857 C21.1018966,44.4750536 19.8589655,44.3214821 18.635431,44.0435179 C18.2180172,43.9444643 17.8013793,44.2070714 17.7059483,44.6201786 C17.6097414,45.0332857 17.8712069,45.445625 18.2886207,45.5400714 C19.8372414,45.8932857 21.4192241,46.0714286 22.9887931,46.0714286 C23.0268103,46.0714286 23.0632759,46.069125 23.1012931,46.0683571 C23.1067241,46.0683571 23.1106034,46.0714286 23.1152586,46.0714286 C23.1214655,46.0714286 23.1268966,46.0675893 23.1331034,46.0675893 C26.8626724,46.04225 30.3618103,45.0455714 33.3892241,43.3240357 C33.4132759,43.3132857 33.4388793,43.3079107 33.4621552,43.2940893 C33.4776724,43.284875 33.4862069,43.2702857 33.5009483,43.2603036 C36.6346552,41.4527679 39.2531897,38.8643214 41.0834483,35.76525 C41.0981897,35.7445179 41.1168103,35.7283929 41.13,35.7053571 C41.1393103,35.6892321 41.1385345,35.6723393 41.1462931,35.6562143 C42.9183621,32.6155 43.937069,29.0941071 43.937069,25.3392857 C43.937069,21.5844643 42.9183621,18.0630714 41.147069,15.0223571 Z M41.0935345,6.33558929 L42.1906034,7.42133929 L41.0935345,8.50785714 L39.9956897,7.42133929 L41.0935345,6.33558929 Z M22.3393966,4.62326786 L22.3393966,2.30357143 L19.6238793,2.30357143 C19.4105172,2.30357143 19.2359483,2.13080357 19.2359483,1.91964286 C19.2359483,1.70848214 19.4105172,1.53571429 19.6238793,1.53571429 L26.6066379,1.53571429 C26.82,1.53571429 26.994569,1.70848214 26.994569,1.91964286 C26.994569,2.13080357 26.82,2.30357143 26.6066379,2.30357143 L23.8911207,2.30357143 L23.8911207,4.62326786 C23.6211207,4.61251786 23.3635345,4.60714286 23.1152586,4.60714286 C23.0935345,4.60714286 23.0687069,4.60867857 23.0469828,4.60867857 C23.0275862,4.60867857 23.0081897,4.60714286 22.9887931,4.60714286 C22.8615517,4.60714286 22.7343103,4.61558929 22.607069,4.61789286 C22.517069,4.62019643 22.4325,4.61942857 22.3393966,4.62326786 Z" id="Shape" fill="#000000"></path>
                    <path d="M16.1325,10.75 L12.2531897,10.75 C11.8241379,10.75 11.4773276,11.0932321 11.4773276,11.5178571 C11.4773276,11.9424821 11.8241379,12.2857143 12.2531897,12.2857143 L16.1325,12.2857143 C16.5615517,12.2857143 16.9083621,11.9424821 16.9083621,11.5178571 C16.9083621,11.0932321 16.5615517,10.75 16.1325,10.75 Z" id="Shape" fill="#000000"></path>
                    <path d="M16.1325,16.125 L8.37387931,16.125 C7.94482759,16.125 7.59801724,16.4682321 7.59801724,16.8928571 C7.59801724,17.3174821 7.94482759,17.6607143 8.37387931,17.6607143 L16.1325,17.6607143 C16.5615517,17.6607143 16.9083621,17.3174821 16.9083621,16.8928571 C16.9083621,16.4682321 16.5615517,16.125 16.1325,16.125 Z" id="Shape" fill="#000000"></path>
                    <path d="M16.1325,21.5 L4.49456897,21.5 C4.06551724,21.5 3.7187069,21.8432321 3.7187069,22.2678571 C3.7187069,22.6924821 4.06551724,23.0357143 4.49456897,23.0357143 L16.1325,23.0357143 C16.5615517,23.0357143 16.9083621,22.6924821 16.9083621,22.2678571 C16.9083621,21.8432321 16.5615517,21.5 16.1325,21.5 Z" id="Shape" fill="#333333"></path>
                    <path d="M16.1325,26.875 L1.39112069,26.875 C0.962068966,26.875 0.615258621,27.2182321 0.615258621,27.6428571 C0.615258621,28.0674821 0.962068966,28.4107143 1.39112069,28.4107143 L16.1325,28.4107143 C16.5615517,28.4107143 16.9083621,28.0674821 16.9083621,27.6428571 C16.9083621,27.2182321 16.5615517,26.875 16.1325,26.875 Z" id="Shape" fill="#000000"></path>
                    <path d="M16.1325,32.25 L6.0462931,32.25 C5.61724138,32.25 5.27043103,32.5932321 5.27043103,33.0178571 C5.27043103,33.4424821 5.61724138,33.7857143 6.0462931,33.7857143 L16.1325,33.7857143 C16.5615517,33.7857143 16.9083621,33.4424821 16.9083621,33.0178571 C16.9083621,32.5932321 16.5615517,32.25 16.1325,32.25 Z" id="Shape" fill="#333333"></path>
                    <path d="M16.1325,37.625 L10.7014655,37.625 C10.2724138,37.625 9.92560345,37.9682321 9.92560345,38.3928571 C9.92560345,38.8174821 10.2724138,39.1607143 10.7014655,39.1607143 L16.1325,39.1607143 C16.5615517,39.1607143 16.9083621,38.8174821 16.9083621,38.3928571 C16.9083621,37.9682321 16.5615517,37.625 16.1325,37.625 Z" id="Shape" fill="#000000"></path>
                </g>
                <text id="Wait-for-preVote-fro-Copy-2" font-family="HelveticaNeue-Medium, Helvetica Neue" font-size="16" font-weight="400" line-spacing="24" letter-spacing="0.0599999987" fill="#333333">
                    <tspan x="657.884" y="361">Wait for preVote </tspan>
                    <tspan x="681.598" y="385">from +2/3</tspan>
                </text>
                <text id="Wait-for-preCommits-Copy-2" font-family="HelveticaNeue-Medium, Helvetica Neue" font-size="16" font-weight="400" line-spacing="24" letter-spacing="0.0599999987" fill="#333333">
                    <tspan x="110.914" y="361">Wait for preCommits </tspan>
                    <tspan x="151.598" y="385">from +2/3</tspan>
                </text>
                <text id="no-+2/3-preVote-for-Copy-2" font-family="HelveticaNeue, Helvetica Neue" font-size="12" font-weight="normal" line-spacing="17" letter-spacing="0.15" fill="#333333">
                    <tspan x="519" y="320">no +2/3 preVote</tspan>
                    <tspan x="519" y="337">for Block</tspan>
                </text>
                <text id="has-+2/3-preVote-for-Copy-2" font-family="HelveticaNeue, Helvetica Neue" font-size="12" font-weight="normal" line-spacing="17" letter-spacing="0.15" fill="#333333">
                    <tspan x="519" y="387">has +2/3 preVote</tspan>
                    <tspan x="519" y="404">for Block</tspan>
                </text>
                <polygon id="Fill-8-Copy-16" fill="#292929" fillRule="nonzero" points="425.860203 282 408 299.868964 408 325.140308 425.860203 343.009912 451.119157 343.009912 468.98 325.140308 468.98 299.868964 451.119157 282"></polygon>
                <polygon id="Fill-8-Copy-17" fill="#292929" fillRule="nonzero" points="425.860203 373 408 390.868964 408 416.140308 425.860203 434.009912 451.119157 434.009912 468.98 416.140308 468.98 390.868964 451.119157 373"></polygon>
                <text id="Propose-Copy-3" font-family="HelveticaNeue-Bold, Helvetica Neue" font-size="12" font-weight="bold" letter-spacing="-0.0299999993" fill="#FFFFFF">
                    <tspan x="415.238391" y="408">Propose</tspan>
                </text>
                <text id="preVote-Nil-Copy-2" font-family="HelveticaNeue-Bold, Helvetica Neue" font-size="12" font-weight="bold" letter-spacing="-0.0299999993" fill="#FFFFFF">
                    <tspan x="416.122391" y="312">preVote</tspan>
                    <tspan x="430.528391" y="327">Nil</tspan>
                </text>
                <g id="Group-5" opacity="0.16">
                    <g id="squares-copy-2" transform="translate(161.000000, 0.000000)" fillRule="nonzero" fill="#292929">
                        <path d="M57.6246473,13.1994362 C57.5851988,13.1761376 29.7206926,0.125763517 29.7206926,0.125763517 C29.3588337,-0.0419618331 28.9453691,-0.0419618331 28.5835102,0.125763517 C28.5835102,0.125763517 0.718879945,13.1761376 0.679555537,13.1994362 C0.284078529,13.4344956 0.0411851841,13.8576514 0.0411851841,14.3125226 L0.0411851841,45.5399333 C0.0411851841,46.0062708 0.294498876,46.4383313 0.70796339,46.6694873 L28.4865017,62.2780694 C28.4869979,62.2784353 28.487246,62.2790453 28.4877422,62.2792892 C28.4882384,62.2796552 28.4889827,62.2794112 28.4894789,62.2797771 L28.4954334,62.2830707 L28.4964258,62.2814849 C28.6988783,62.3954162 28.9249006,62.4545775 29.1519153,62.4545775 C29.3793022,62.4545775 29.604208,62.3973679 29.8083972,62.2830707 L57.5959913,46.6693653 C58.0094558,46.4380873 58.2627695,46.0060268 58.2627695,45.5398113 L58.2627695,14.3124006 C58.2630176,13.8576514 58.0200002,13.4344956 57.6246473,13.1994362 Z M29.1521634,2.74203502 L39.63677,7.65169148 L29.1521634,12.560982 L18.6675568,7.65169148 L29.1521634,2.74203502 Z M13.2735382,50.7333201 L2.68782947,44.7852302 L2.68782947,32.0771378 L13.2735382,37.5294925 L13.2735382,50.7333201 Z M13.2735382,34.5911884 L2.68782947,29.1384677 L2.68782947,16.4624566 L13.2735382,21.9152993 L13.2735382,34.5911884 Z M4.32469243,14.3680244 L15.5889643,9.0933976 L26.0734469,14.0025661 L14.3094945,19.5110326 L4.32469243,14.3680244 Z M27.8289033,58.9117301 L15.9199344,52.2201595 L15.9199344,38.8926422 L27.8289033,45.0266327 L27.8289033,58.9117301 Z M27.8289033,42.0884505 L15.9199344,35.954216 L15.9199344,23.2784489 L27.8289033,29.4128054 L27.8289033,42.0884505 Z M29.1521634,27.1557711 L17.2417059,21.0210487 L29.1521634,15.4442723 L41.0626209,21.0211707 L29.1521634,27.1557711 Z M42.3843924,52.2197936 L30.4754235,58.9109982 L30.4754235,45.0266327 L42.3843924,38.8926422 L42.3843924,52.2197936 Z M42.3843924,35.954216 L30.4754235,42.0884505 L30.4754235,29.4129274 L42.3843924,23.2785709 L42.3843924,35.954216 Z M32.23088,14.0025661 L42.7153625,9.0933976 L53.9796344,14.3680244 L43.9947083,19.5109106 L32.23088,14.0025661 Z M55.6164974,44.7852302 L45.0307886,50.7329541 L45.0307886,37.5294925 L55.6164974,32.0771378 L55.6164974,44.7852302 L55.6164974,44.7852302 Z M55.6164974,29.1384677 L45.0307886,34.5911884 L45.0307886,21.9152993 L55.6164974,16.4624566 L55.6164974,29.1384677 L55.6164974,29.1384677 Z" id="Shape"></path>
                    </g>
                    <g id="Group-3-Copy-16" transform="translate(191.500000, 116.000000) rotate(180.000000) translate(-191.500000, -116.000000) translate(186.000000, 108.000000)" stroke="#E7E8E8" strokeLinecap="square">
                        <path d="M5.00522026,14.442816 L5.00522026,0.491223797" id="Line"></path>
                        <path d="M5.00522026,15.442816 L0.556135584,10.9985179" id="Line"></path>
                        <path d="M9.45430493,15.442816 L5.00522026,10.9985179" id="Line-Copy-2" transform="translate(7.229763, 13.220667) scale(-1, 1) translate(-7.229763, -13.220667) "></path>
                    </g>
                    <path d="M141.477278,124 L191,124" id="Line-Copy-36" stroke="#E7E8E8" strokeLinecap="square"></path>
                    <path d="M141.5,124.5 L141.5,137.538405" id="Line-Copy-37" stroke="#E7E8E8" strokeLinecap="square"></path>
                    <g id="Group-3-Copy-10" transform="translate(435.500000, 156.500000) scale(1, -1) translate(-435.500000, -156.500000) translate(430.000000, 132.000000)" stroke="#E7E8E8" strokeLinecap="square">
                        <path d="M5.00522026,47.6636476 L5.00522026,0.497404778" id="Line"></path>
                        <path d="M5.00522026,47.6636476 L0.556135584,43.2193495" id="Line"></path>
                        <path d="M9.45430493,47.6636476 L5.00522026,43.2193495" id="Line-Copy-2" transform="translate(7.229763, 45.441499) scale(-1, 1) translate(-7.229763, -45.441499) "></path>
                    </g>
                    <g id="Group-3-Copy-17" transform="translate(316.500000, 36.500000) scale(1, -1) rotate(270.000000) translate(-316.500000, -36.500000) translate(311.000000, -18.000000)" stroke="#E7E8E8" strokeLinecap="square">
                        <path d="M5.00522026,108.106958 L5.00522026,0.489618428" id="Line"></path>
                        <path d="M5.00522026,108.106958 L0.556135584,103.66266" id="Line"></path>
                        <path d="M9.45430493,108.106958 L5.00522026,103.66266" id="Line-Copy-2" transform="translate(7.229763, 105.884809) scale(-1, 1) translate(-7.229763, -105.884809) "></path>
                    </g>
                    <path d="M599.668407,150.548327 L599.668407,-79.5005548" id="Line-Copy-38" stroke="#E7E8E8" strokeLinecap="square" transform="translate(599.500000, 35.500000) scale(1, -1) rotate(270.000000) translate(-599.500000, -35.500000) "></path>
                    <text id="New-Block-Copy-2" font-family="HelveticaNeue-Medium, Helvetica Neue" font-size="16" font-weight="400" line-spacing="24" letter-spacing="0.0599999987" fill="#292929">
                        <tspan x="153.51" y="88">New Block</tspan>
                    </text>
                    <text id="Vote-for-a-new-set-o-Copy-2" font-family="HelveticaNeue-Medium, Helvetica Neue" font-size="16" font-weight="400" line-spacing="24" letter-spacing="0.0599999987" fill="#333333">
                        <tspan x="369.704" y="74">Vote for a new set </tspan>
                        <tspan x="390.454" y="98">of validators</tspan>
                    </text>
                    <path d="M434.5,181.5 L277.495833,181.5" id="Line-Copy-39" stroke="#E7E8E8" strokeLinecap="square"></path>
                    <g id="ballot-copy-2" transform="translate(415.000000, 7.000000)" fillRule="nonzero" fill="#333333">
                        <rect id="Rectangle-path" x="13.6" y="16" width="9.6" height="1.6"></rect>
                        <rect id="Rectangle-path" x="21.6" y="19.2" width="4.8" height="1.6"></rect>
                        <polygon id="Shape" points="25.0344 4.2344 20 9.2688 18.9656 8.2344 17.8344 9.3656 20 11.5312 26.1656 5.3656"></polygon>
                        <rect id="Rectangle-path" x="13.6" y="19.2" width="6.4" height="1.6"></rect>
                        <rect id="Rectangle-path" x="12.8" y="34.4" width="1.6" height="1.6"></rect>
                        <rect id="Rectangle-path" x="16" y="34.4" width="1.6" height="1.6"></rect>
                        <rect id="Rectangle-path" x="19.2" y="34.4" width="1.6" height="1.6"></rect>
                        <rect id="Rectangle-path" x="22.4" y="34.4" width="1.6" height="1.6"></rect>
                        <rect id="Rectangle-path" x="25.6" y="34.4" width="1.6" height="1.6"></rect>
                        <rect id="Rectangle-path" x="24.8" y="16" width="1.6" height="1.6"></rect>
                        <path d="M30.4,16 L30.4,0 L9.6,0 L9.6,16 L0,16 L0,40 L40,40 L40,16 L30.4,16 Z M11.2,22.4 L11.2,16 L11.2,1.6 L28.8,1.6 L28.8,16 L28.8,22.4 L28.8,25.6 L11.2,25.6 L11.2,22.4 Z M30.4,27.2 L30.4,24 L33.6,24 L33.6,28.8 L6.4,28.8 L6.4,24 L9.6,24 L9.6,27.2 L30.4,27.2 Z M38.4,38.4 L1.6,38.4 L1.6,17.6 L9.6,17.6 L9.6,22.4 L4.8,22.4 L4.8,30.4 L35.2,30.4 L35.2,22.4 L30.4,22.4 L30.4,17.6 L38.4,17.6 L38.4,38.4 Z" id="Shape"></path>
                        <polygon id="Shape" points="22.4 10.4 22.4 12 17.6 12 17.6 7.2 20.8 7.2 20.8 5.6 16 5.6 16 13.6 24 13.6 24 10.4"></polygon>
                    </g>
                    <text id="Invalid-Block-or-not-Copy-2" font-family="HelveticaNeue, Helvetica Neue" font-size="12" font-weight="normal" line-spacing="17" letter-spacing="0.149999991" fill="#97989B">
                        <tspan x="570.932" y="115">Invalid Block or</tspan>
                        <tspan x="547.856" y="132">not received in time</tspan>
                    </text>
                    <text id="no-+2/3-preCommit-fo-Copy-2" font-family="HelveticaNeue, Helvetica Neue" font-size="12" font-weight="normal" line-spacing="17" letter-spacing="0.149999991" fill="#97989B">
                        <tspan x="248" y="232">no +2/3 preCommit</tspan>
                        <tspan x="248" y="249">for Block</tspan>
                    </text>
                    <text id="has-+2/3-preCommit-f-Copy-2" font-family="HelveticaNeue, Helvetica Neue" font-size="12" font-weight="normal" line-spacing="17" letter-spacing="0.149999991" fill="#97989B">
                        <tspan x="15.1640002" y="233">has +2/3 preCommit</tspan>
                        <tspan x="78.4340001" y="250">for Block</tspan>
                    </text>
                    <text id="Valid-Block-Copy-2" font-family="HelveticaNeue, Helvetica Neue" font-size="12" font-weight="normal" line-spacing="17" letter-spacing="0.149999991" fill="#97989B">
                        <tspan x="774" y="117">Valid Block</tspan>
                    </text>
                    <g id="Group-Copy-4" transform="translate(623.000000, 150.000000)">
                        <polygon id="Fill-8-Copy-12" fill="#292929" fillRule="nonzero" points="32.8602027 0 15 17.8689636 15 43.1403076 32.8602027 61.0099117 58.1191566 61.0099117 75.9799995 43.1403076 75.9799995 17.8689636 58.1191566 0"></polygon>
                        <polygon id="Fill-8-Copy-13" fill="#292929" fillRule="nonzero" points="125.860203 0 108 17.8689636 108 43.1403076 125.860203 61.0099117 151.119157 61.0099117 168.98 43.1403076 168.98 17.8689636 151.119157 0"></polygon>
                        <text id="Propose-Copy" font-family="HelveticaNeue-Bold, Helvetica Neue" font-size="12" font-weight="bold" letter-spacing="-0.0299999993" fill="#FFFFFF">
                            <tspan x="115.238391" y="35">Propose</tspan>
                        </text>
                        <text id="preVote-Nil" font-family="HelveticaNeue-Bold, Helvetica Neue" font-size="12" font-weight="bold" letter-spacing="-0.0299999993" fill="#FFFFFF">
                            <tspan x="23.1223906" y="30">preVote</tspan>
                            <tspan x="37.5283906" y="45">Nil</tspan>
                        </text>
                    </g>
                    <g id="Group-Copy-5" transform="translate(96.000000, 150.000000)">
                        <polygon id="Fill-8-Copy-12" fill="#292929" fillRule="nonzero" points="32.8602027 0 15 17.8689636 15 43.1403076 32.8602027 61.0099117 58.1191566 61.0099117 75.9799995 43.1403076 75.9799995 17.8689636 58.1191566 0"></polygon>
                        <polygon id="Fill-8-Copy-13" fill="#292929" fillRule="nonzero" points="125.860203 0 108 17.8689636 108 43.1403076 125.860203 61.0099117 151.119157 61.0099117 168.98 43.1403076 168.98 17.8689636 151.119157 0"></polygon>
                        <text id="New-block" font-family="HelveticaNeue-Bold, Helvetica Neue" font-size="12" font-weight="bold" letter-spacing="-0.0299999993" fill="#FFFFFF">
                            <tspan x="126.296391" y="28">New</tspan>
                            <tspan x="123.332391" y="43">block</tspan>
                        </text>
                        <text id="Commit" font-family="HelveticaNeue-Bold, Helvetica Neue" font-size="12" font-weight="bold" letter-spacing="-0.0299999993" fill="#FFFFFF">
                            <tspan x="22.4713906" y="35">Commit</tspan>
                        </text>
                    </g>
                    <path d="M715,35.0226984 L715,108.040001" id="Line-Copy-40" stroke="#E7E8E8" strokeLinecap="square"></path>
                    <path d="M670,109 L762.050003,109" id="Line-Copy-41" stroke="#E7E8E8" strokeLinecap="square"></path>
                    <path d="M670,109 L670,135" id="Line-Copy-42" stroke="#E7E8E8" strokeLinecap="square"></path>
                    <path d="M762,109 L762,135" id="Line-Copy-43" stroke="#E7E8E8" strokeLinecap="square"></path>
                    <path d="M668,252 L761.050003,252" id="Line-Copy-44" stroke="#E7E8E8" strokeLinecap="square" transform="translate(714.525002, 252.000000) scale(1, -1) translate(-714.525002, -252.000000) "></path>
                    <path d="M141,252 L234.050003,252" id="Line-Copy-45" stroke="#E7E8E8" strokeLinecap="square" transform="translate(187.525002, 252.000000) scale(1, -1) translate(-187.525002, -252.000000) "></path>
                    <g id="Group-3-Copy-18" transform="translate(713.500000, 263.000000) scale(1, -1) rotate(180.000000) translate(-713.500000, -263.000000) translate(708.000000, 251.000000)" stroke="#E7E8E8" strokeLinecap="square">
                        <path d="M5.00522026,22.442816 L5.00522026,0.494184573" id="Line"></path>
                        <path d="M5.00522026,23.442816 L0.556135584,18.9985179" id="Line"></path>
                        <path d="M9.45430493,23.442816 L5.00522026,18.9985179" id="Line-Copy-2" transform="translate(7.229763, 21.220667) scale(-1, 1) translate(-7.229763, -21.220667) "></path>
                    </g>
                    <path d="M188.668407,273.442816 L188.668407,251.494185" id="Line-Copy-46" stroke="#E7E8E8" strokeLinecap="square" transform="translate(188.500000, 262.500000) scale(1, -1) rotate(180.000000) translate(-188.500000, -262.500000) "></path>
                    <path d="M668,251.4 L668,228" id="Line-Copy-47" stroke="#E7E8E8" strokeLinecap="square"></path>
                    <path d="M141,251.4 L141,228" id="Line-Copy-48" stroke="#E7E8E8" strokeLinecap="square"></path>
                    <path d="M761,251.4 L761,228" id="Line-Copy-49" stroke="#E7E8E8" strokeLinecap="square"></path>
                    <path d="M234,251.4 L234,228" id="Line-Copy-50" stroke="#E7E8E8" strokeLinecap="square"></path>
                </g>
                <path d="M572,296 L572,424.531451" id="Line-Copy-51" stroke="#9FA8B1" strokeLinecap="square" transform="translate(572.500000, 360.500000) rotate(90.000000) translate(-572.500000, -360.500000) "></path>
                <path d="M461.974998,361.025002 L554.025002,361.025002" id="Line-Copy-52" stroke="#9FA8B1" strokeLinecap="square" transform="translate(508.000000, 361.025002) rotate(90.000000) translate(-508.000000, -361.025002) "></path>
                <path d="M494,302 L494,328" id="Line-Copy-53" stroke="#9FA8B1" strokeLinecap="square" transform="translate(494.000000, 315.000000) rotate(90.000000) translate(-494.000000, -315.000000) "></path>
                <path d="M494,394 L494,420" id="Line-Copy-54" stroke="#9FA8B1" strokeLinecap="square" transform="translate(494.000000, 407.000000) rotate(90.000000) translate(-494.000000, -407.000000) "></path>
                <path d="M322.474998,359.525002 L415.525002,359.525002" id="Line-Copy-55" stroke="#9FA8B1" strokeLinecap="square" transform="translate(369.000000, 359.525002) scale(1, -1) rotate(-90.000000) translate(-369.000000, -359.525002) "></path>
                <g id="Group-3-Copy-19" transform="translate(331.000000, 359.500000) scale(1, -1) rotate(90.000000) translate(-331.000000, -359.500000) translate(325.500000, 320.500000)" stroke="#9FA8B1" strokeLinecap="square">
                    <path d="M5.00522026,76.442816 L5.00522026,0.993303385" id="Line"></path>
                    <path d="M5.00522026,77.442816 L0.556135584,72.9985179" id="Line"></path>
                    <path d="M9.45430493,77.442816 L5.00522026,72.9985179" id="Line-Copy-2" transform="translate(7.229763, 75.220667) scale(-1, 1) translate(-7.229763, -75.220667) "></path>
                </g>
                <path d="M380.7,324.7 L380.7,301.3" id="Line-Copy-56" stroke="#9FA8B1" strokeLinecap="square" transform="translate(380.700000, 313.000000) rotate(90.000000) translate(-380.700000, -313.000000) "></path>
                <path d="M380.7,417.7 L380.7,394.3" id="Line-Copy-57" stroke="#9FA8B1" strokeLinecap="square" transform="translate(380.700000, 406.000000) rotate(90.000000) translate(-380.700000, -406.000000) "></path>
            </g>
        </g>
    </g>
</svg>